<svg xmlns="http://www.w3.org/2000/svg" xmlns:xlink="http://www.w3.org/1999/xlink" aria-hidden="true" overflow="hidden" style="position:absolute;width:0;height:0">  <symbol xmlns="http://www.w3.org/2000/svg" id="sidebar_contacts" fill="none" viewBox="0 0 24 24">
    <path fill="currentColor" fill-rule="evenodd" d="M8.2502 16a7.2507 7.2507 0 0 0-5.932 3.0811c-.3177.4518-.9414.5605-1.3932.2429s-.5606-.9414-.243-1.3932a9.2515 9.2515 0 0 1 15.1365-.0006c.3177.4518.209 1.0756-.2428 1.3932-.4518.3177-1.0755.209-1.3932-.2428A7.252 7.252 0 0 0 8.2502 16Z" clip-rule="evenodd"/>
    <path fill="currentColor" fill-rule="evenodd" d="M8.25 6.25c-2.1401 0-3.875 1.7349-3.875 3.875S6.1099 14 8.25 14s3.875-1.7349 3.875-3.875S10.3901 6.25 8.25 6.25Zm-5.875 3.875c0-3.2447 2.6303-5.875 5.875-5.875s5.875 2.6303 5.875 5.875S11.4947 16 8.25 16s-5.875-2.6303-5.875-5.875Z" clip-rule="evenodd"/>
    <path fill="currentColor" fill-rule="evenodd" d="M16.4811 6.294a3.8756 3.8756 0 0 0-1.6393.1003c-.5316.1497-1.084-.1598-1.2338-.6914-.1497-.5316.1598-1.084.6914-1.2337a5.8756 5.8756 0 1 1 1.5941 11.5309c-.5523.0001-1.0001-.4476-1.0002-.9998 0-.5523.4476-1.0001.9999-1.0002a3.876 3.876 0 0 0 2.9218-1.3298 3.8755 3.8755 0 0 0-2.3339-6.3764Z" clip-rule="evenodd"/>
    <path fill="currentColor" fill-rule="evenodd" d="M19.2334 16.8148A7.2401 7.2401 0 0 0 15.8913 16c-.5522.0004-1.0003-.447-1.0007-.9993-.0004-.5523.447-1.0003.9993-1.0007a9.2395 9.2395 0 0 1 7.5692 3.9308c.3173.452.2082 1.0757-.2439 1.3931-.452.3173-1.0756.2081-1.393-.2439a7.2393 7.2393 0 0 0-2.5888-2.2652Z" clip-rule="evenodd"/>
  </symbol>
  <symbol xmlns="http://www.w3.org/2000/svg" id="sidebar_efficiency" fill="none" viewBox="0 0 24 24">
    <path fill="currentColor" fill-rule="evenodd" d="M13 2.25c0-.5523-.4477-1-1-1s-1 .4477-1 1V3.5H3.75C2.7835 3.5 2 4.2835 2 5.25V16.5c0 .9665.7835 1.75 1.75 1.75h3.1694l-1.7002 2.1253c-.345.4313-.2751 1.0606.1561 1.4056.4313.345 1.0606.2751 1.4056-.1562L9.4807 18.25h5.0387l2.6998 3.3747c.345.4313.9743.5012 1.4055.1562.4313-.345.5012-.9743.1562-1.4056L17.0806 18.25H20.25c.9665 0 1.75-.7835 1.75-1.75V5.25c0-.9665-.7835-1.75-1.75-1.75H13V2.25ZM12 5.5H4v10.75h16V5.5h-8Zm-3 4.75c.5523 0 1 .4477 1 1v2.25c0 .5523-.4477 1-1 1s-1-.4477-1-1v-2.25c0-.5523.4477-1 1-1Zm4-.5c0-.5523-.4477-1-1-1s-1 .4477-1 1v3.75c0 .5523.4477 1 1 1s1-.4477 1-1V9.75Zm2-2.5c.5523 0 1 .4477 1 1v5.25c0 .5523-.4477 1-1 1s-1-.4477-1-1V8.25c0-.5523.4477-1 1-1Z" clip-rule="evenodd"/>
  </symbol>
  <symbol xmlns="http://www.w3.org/2000/svg" id="sidebar_folder" fill="none" viewBox="0 0 24 24">
    <path fill="currentColor" fill-rule="evenodd" d="M4 5.25V17.5h16v-10h-7.75a1.75 1.75 0 0 1-1.05-.35l-2.5333-1.9H4ZM2.5126 3.7626A1.75 1.75 0 0 1 3.75 3.25h5a1.75 1.75 0 0 1 1.05.35l2.5333 1.9H20.25A1.75 1.75 0 0 1 22 7.25v10.5833c0 .4421-.1756.866-.4882 1.1785a1.6663 1.6663 0 0 1-1.1785.4882H3.75A1.75 1.75 0 0 1 2 17.75V5a1.75 1.75 0 0 1 .5126-1.2374Z" clip-rule="evenodd"/>
  </symbol>
  <symbol xmlns="http://www.w3.org/2000/svg" id="sidebar_folders" fill="none" viewBox="0 0 24 24">
    <path stroke="currentColor" stroke-linecap="round" stroke-linejoin="round" stroke-width="2" d="M18.75 10.5v8.3333a.6664.6664 0 0 1-.1953.4714.6664.6664 0 0 1-.4714.1953H3.75a.7498.7498 0 0 1-.75-.75V8.25a.75.75 0 0 1 .75-.75H8a.75.75 0 0 1 .45.15l2.6 1.95a.7499.7499 0 0 0 .45.15H18a.7499.7499 0 0 1 .75.75Z"/>
    <path fill="currentColor" fill-rule="evenodd" d="M7 6.5v-1h3.9167L13.45 7.4a1.75 1.75 0 0 0 1.05.35h6.25v7.75h-1v-5A1.75 1.75 0 0 0 18 8.75h-6.4167L9.05 6.85A1.75 1.75 0 0 0 8 6.5H7Zm-2 0V5.25A1.75 1.75 0 0 1 6.75 3.5H11a1.75 1.75 0 0 1 1.05.35l2.5333 1.9H21a1.75 1.75 0 0 1 1.75 1.75v8.3333a1.6657 1.6657 0 0 1-.4882 1.1785 1.6657 1.6657 0 0 1-1.1785.4882H19.75v1.3333c0 .4421-.1756.866-.4882 1.1785a1.6663 1.6663 0 0 1-1.1785.4882H3.75A1.75 1.75 0 0 1 2 18.75V8.25A1.75 1.75 0 0 1 3.75 6.5H5Zm12.75 10v-5.75H11.5a1.75 1.75 0 0 1-1.05-.35L7.9167 8.5H4v10h13.75v-2Z" clip-rule="evenodd"/>
  </symbol>
  <symbol xmlns="http://www.w3.org/2000/svg" id="sidebar_mytask" fill="none" viewBox="0 0 24 24">
    <path fill="currentColor" fill-rule="evenodd" d="M4.75 19.25V4.75h14.5v14.5H4.75ZM4.5 2.75c-.9665 0-1.75.7835-1.75 1.75v15c0 .9665.7835 1.75 1.75 1.75h15c.9665 0 1.75-.7835 1.75-1.75v-15c0-.9665-.7835-1.75-1.75-1.75h-15Zm12.3155 7.7234c.3995-.3814.4142-1.0144.0329-1.4139-.3814-.3995-1.0144-.4142-1.4139-.0329l-4.8095 4.591-2.0595-1.966c-.3995-.3813-1.0325-.3666-1.4139.0329-.3813.3995-.3666 1.0325.033 1.4139l2.7499 2.625a1 1 0 0 0 1.3809 0l5.5001-5.25Z" clip-rule="evenodd"/>
  </symbol>
  <symbol xmlns="http://www.w3.org/2000/svg" id="sidebar_storage" fill="none" viewBox="0 0 24 24">
    <path fill="currentColor" fill-rule="evenodd" d="M8.5 5V4h6.8358L18.5 7.1642V17h-1V9.75c0-.2652-.1054-.5196-.2929-.7071l-3.75-3.75A1 1 0 0 0 12.75 5H8.5Zm-2 0V3.75A1.75 1.75 0 0 1 8.25 2h7.5a1 1 0 0 1 .7071.2929l3.75 3.75c.1875.1875.2929.4419.2929.7071v10.5A1.75 1.75 0 0 1 18.75 19H17.5v1.25A1.75 1.75 0 0 1 15.75 22H5.25a1.75 1.75 0 0 1-1.75-1.75V6.75A1.75 1.75 0 0 1 5.25 5H6.5Zm9 13v-7.8358L12.3358 7H5.5v13h10v-2Zm-8.25-3.75c0-.5523.4477-1 1-1h4.5c.5523 0 1 .4477 1 1s-.4477 1-1 1h-4.5c-.5523 0-1-.4477-1-1Zm1 2c-.5523 0-1 .4477-1 1s.4477 1 1 1h4.5c.5523 0 1-.4477 1-1s-.4477-1-1-1h-4.5Z" clip-rule="evenodd"/>
  </symbol>
  <symbol xmlns="http://www.w3.org/2000/svg" id="task_barcode" fill="none" viewBox="0 0 24 24">
    <path fill="currentColor" fill-rule="evenodd" d="M17.25 3.75a.75.75 0 0 0 0 1.5h3v3a.75.75 0 0 0 1.5 0V4.5a.75.75 0 0 0-.75-.75h-3.75Zm-13.5 12a.75.75 0 0 0-1.5 0v3.75a.75.75 0 0 0 .75.75h3.75a.75.75 0 0 0 0-1.5h-3v-3ZM21 15a.75.75 0 0 1 .75.75v3.75a.75.75 0 0 1-.75.75h-3.75a.75.75 0 0 1 0-1.5h3v-3A.75.75 0 0 1 21 15ZM3 3.75a.75.75 0 0 0-.75.75v3.75a.75.75 0 0 0 1.5 0v-3h3a.75.75 0 0 0 0-1.5H3ZM7.5 7.5a.75.75 0 0 1 .75.75v7.5a.75.75 0 0 1-1.5 0v-7.5a.75.75 0 0 1 .75-.75Zm9.75.75a.75.75 0 0 0-1.5 0v7.5a.75.75 0 0 0 1.5 0v-7.5ZM13.5 7.5a.75.75 0 0 1 .75.75v7.5a.75.75 0 0 1-1.5 0v-7.5a.75.75 0 0 1 .75-.75Zm-2.25.75a.75.75 0 0 0-1.5 0v7.5a.75.75 0 0 0 1.5 0v-7.5Z" clip-rule="evenodd"/>
  </symbol>
  <symbol xmlns="http://www.w3.org/2000/svg" id="task_bold" fill="none" viewBox="0 0 24 24">
    <path fill="currentColor" d="M15.2484 11.8a3.6798 3.6798 0 0 0 1.75-2.8 3.9291 3.9291 0 0 0-1.1013-2.7996A3.9308 3.9308 0 0 0 13.1384 5h-6.49v14h7a3.7398 3.7398 0 0 0 3.7-3.78v-.12a3.639 3.639 0 0 0-2.1-3.3Zm-6.6-4.8h4.2a2.09 2.09 0 0 1 2 1.3 2.09 2.09 0 0 1-1.37 2.61 2.2273 2.2273 0 0 1-.63.09h-4.2V7Zm4.6 10h-4.6v-4h4.6a2.0898 2.0898 0 0 1 2 1.3 2.09 2.09 0 0 1-1.37 2.61 2.2273 2.2273 0 0 1-.63.09Z"/>
  </symbol>
  <symbol xmlns="http://www.w3.org/2000/svg" id="task_center" fill="none" viewBox="0 0 24 24">
    <path fill="currentColor" d="M9 18h6v-2H9v2Zm-3-7v2h12v-2H6ZM3 6v2h18V6H3Z"/>
  </symbol>
  <symbol xmlns="http://www.w3.org/2000/svg" id="task_cursive" fill="none" viewBox="0 0 24 24">
    <path fill="currentColor" d="M11.7586 9h2l-2.2 10h-2l2.2-10Zm1.68-4a1.0002 1.0002 0 0 0-.9808 1.195.9998.9998 0 0 0 1.3635.7289A1.0003 1.0003 0 0 0 14.4386 6a1.0002 1.0002 0 0 0-1-1Z"/>
  </symbol>
  <symbol xmlns="http://www.w3.org/2000/svg" id="task_date" fill="none" viewBox="0 0 24 24">
    <path fill="currentColor" d="M17 3h4a1 1 0 0 1 1 1v16a1.0001 1.0001 0 0 1-1 1H3a1.0002 1.0002 0 0 1-1-1V4a1 1 0 0 1 1-1h4V1h2v2h6V1h2v2Zm-2 2H9v2H7V5H4v4h16V5h-3v2h-2V5Zm5 6H4v8h16v-8Z"/>
  </symbol>
  <symbol xmlns="http://www.w3.org/2000/svg" id="task_date-done" fill="none" viewBox="0 0 24 24">
    <path fill="currentColor" d="M9 1v2h6V1h2v2h4a1 1 0 0 1 1 1v16a1.0001 1.0001 0 0 1-1 1H3a1.0002 1.0002 0 0 1-1-1V4a1 1 0 0 1 1-1h4V1h2Zm11 7H4v11h16V8Zm-4.964 2.136 1.414 1.414-4.95 4.95-3.536-3.536L9.38 11.55l2.121 2.122 3.536-3.536h-.001Z"/>
  </symbol>
  <symbol xmlns="http://www.w3.org/2000/svg" id="task_doc" fill="none" viewBox="0 0 24 24">
    <path fill="currentColor" fill-rule="evenodd" d="M5.5 2c-1.1046 0-2 .8954-2 2v16c0 1.1046.8954 2 2 2h13c1.1046 0 2-.8954 2-2V8.4142c0-.0299-.0007-.0597-.002-.0895a.9954.9954 0 0 0-.0767-.466A1.9989 1.9989 0 0 0 19.9142 7L15.5 2.5858a2 2 0 0 0-.8644-.5087.9969.9969 0 0 0-.4539-.0748A2.0025 2.0025 0 0 0 14.0858 2H5.5Zm7.75 2H5.5v16h13V9.25h-4.25c-.5523 0-1-.4477-1-1V4Zm4.0858 3.25L15.25 5.1642V7.25h2.0858Z" clip-rule="evenodd"/>
  </symbol>
  <symbol xmlns="http://www.w3.org/2000/svg" id="task_down" fill="none" viewBox="0 0 24 24">
    <path fill="currentColor" d="M19 20v2H5v-2h14Zm-3-6.785a3.9998 3.9998 0 0 1-3.8284 3.7972 4 4 0 0 1-1.9116-.3972A3.75 3.75 0 0 1 8 13.085v-8.08H6v8.21a6.0004 6.0004 0 0 0 5.2283 5.7352A6.0009 6.0009 0 0 0 14 18.655a5.8509 5.8509 0 0 0 4-5.65v-8h-2v8.21ZM16 5h2-2ZM8 5H6h2Z"/>
  </symbol>
  <symbol xmlns="http://www.w3.org/2000/svg" id="task_folder" fill="none" viewBox="0 0 24 24">
    <path fill="currentColor" d="M12.414 5H21a1 1 0 0 1 1 1v14a1.0001 1.0001 0 0 1-1 1H3a1.0002 1.0002 0 0 1-1-1V4a1 1 0 0 1 1-1h7.414l2 2ZM4 5v14h16V7h-8.414l-2-2H4Zm7 7V9h2v3h3v2h-3v3h-2v-3H8v-2h3Z"/>
  </symbol>
  <symbol xmlns="http://www.w3.org/2000/svg" id="task_left" fill="none" viewBox="0 0 24 24">
    <path fill="currentColor" d="M3 18h6v-2H3v2Zm0-7v2h12v-2H3Zm0-5v2h18V6H3Z"/>
  </symbol>
  <symbol xmlns="http://www.w3.org/2000/svg" id="task_link" fill="none" viewBox="0 0 24 24">
    <path fill="currentColor" d="M11 17H7A5 5 0 0 1 7 7h4v2H7a3 3 0 1 0 0 6h4v2Zm6-10h-4v2h4a3 3 0 0 1 0 6h-4v2h4a4.9997 4.9997 0 0 0 5-5 5 5 0 0 0-5-5Zm-1 4H8v2h8v-2Z"/>
  </symbol>
  <symbol xmlns="http://www.w3.org/2000/svg" id="task_location" fill="none" viewBox="0 0 24 24">
    <path fill="currentColor" d="m12 20.9004 4.95-4.95a7.0006 7.0006 0 0 0 1.9156-3.5841 7.0006 7.0006 0 0 0-2.9767-7.1857A7 7 0 0 0 7.05 15.9504l4.95 4.95Zm0 2.828-6.364-6.364a9 9 0 1 1 12.728 0L12 23.7284Zm0-10.728a2 2 0 1 0 0-4 2 2 0 0 0 0 4Zm0 2a3.9997 3.9997 0 0 1-4-4 4 4 0 1 1 4 4Z"/>
  </symbol>
  <symbol xmlns="http://www.w3.org/2000/svg" id="task_minus" fill="none" viewBox="0 0 24 24">
    <path fill="currentColor" fill-rule="evenodd" d="M5 12c0-.5523.4477-1 1-1h12c.5523 0 1 .4477 1 1s-.4477 1-1 1H6c-.5523 0-1-.4477-1-1Z" clip-rule="evenodd"/>
  </symbol>
  <symbol xmlns="http://www.w3.org/2000/svg" id="task_money" fill="none" viewBox="0 0 24 24">
    <path fill="currentColor" fill-rule="evenodd" d="M5.42 7.249C3.711 8.0378 3 8.9762 3 9.75c0 .7738.711 1.7123 2.42 2.501C7.0653 13.0104 9.3909 13.5 12 13.5s4.9347-.4896 6.58-1.249C20.289 11.4623 21 10.5238 21 9.75c0-.7738-.711-1.7122-2.42-2.501C16.9347 6.4896 14.6091 6 12 6s-4.9347.4896-6.58 1.249ZM21 12.5144c-.5153.4261-1.1304.7935-1.7914 1.0986a11.4745 11.4745 0 0 1-.4586.1993v2.8803l.0396-.0197C20.3962 15.8696 21 14.9386 21 14.25v-1.7356Zm-8.25 2.4729c1.6251-.0551 3.156-.2882 4.5-.6643v2.9607c-1.2364.3856-2.7492.6458-4.5.704v-3.0004ZM12 19.5c2.4492 0 4.5667-.3638 6.2445-.9682a1.7107 1.7107 0 0 0 .0207-.0074c.4277-.155.8267-.3256 1.1952-.5098C21.2288 17.1304 22.5 15.8114 22.5 14.25v-4.5c0-1.7115-1.4716-3.023-3.2914-3.863C17.325 5.0178 14.7757 4.5 12 4.5c-2.7757 0-5.325.5177-7.2086 1.387C2.9716 6.727 1.5 8.0386 1.5 9.75v4.5c0 1.5614 1.2712 2.8804 3.0396 3.7646.3689.1844.7683.3552 1.1966.5102a.5535.5535 0 0 0 .0176.0064C7.4318 19.136 9.55 19.5 12 19.5Zm-5.25-2.2163c1.2364.3856 2.7492.6458 4.5.704v-3.0004c-1.6251-.0551-3.156-.2882-4.5-.6643v2.9607Zm-1.5-3.4714a11.4735 11.4735 0 0 1-.4586-.1993c-.661-.3051-1.2761-.6725-1.7914-1.0986V14.25c0 .6886.6038 1.6196 2.2104 2.4229.0132.0066.0263.0132.0396.0197v-2.8803Z" clip-rule="evenodd"/>
  </symbol>
  <symbol xmlns="http://www.w3.org/2000/svg" id="task_open" fill="none" viewBox="0 0 24 24">
    <path fill="currentColor" fill-rule="evenodd" d="M8.9994 4.75h8.3561l-5.1006 5.3842 1.089 1.0316 5.0052-5.2836V14h1.5V3.25H8.9994v1.5ZM4.2481 9v10.75h10.7513v-1.5H6.8087l5.0194-5.0197-1.0607-1.0606-5.0194 5.0196V9h-1.5Z" clip-rule="evenodd"/>
  </symbol>
  <symbol xmlns="http://www.w3.org/2000/svg" id="task_priority" fill="none" viewBox="0 0 24 24">
    <path fill="currentColor" d="m19 3 4 5h-3v12h-2V8h-3l4-5Zm-5 15v2H3v-2h11Zm0-7v2H3v-2h11Zm-2-7v2H3V4h9Z"/>
  </symbol>
  <symbol xmlns="http://www.w3.org/2000/svg" id="task_reminder" fill="none" viewBox="0 0 24 24">
    <path fill="currentColor" d="M22 20.0005H2v-2h1v-6.969c0-4.988 4.03-9.031 9-9.031s9 4.043 9 9.031v6.969h1v2Zm-17-2h14v-6.969c0-3.883-3.134-7.031-7-7.031s-7 3.148-7 7.031v6.969Zm4.5 3h5c0 .663-.2634 1.2989-.7322 1.7678a2.5004 2.5004 0 0 1-3.5356 0A2.5003 2.5003 0 0 1 9.5 21.0005Z"/>
  </symbol>
  <symbol xmlns="http://www.w3.org/2000/svg" id="task_repeat" fill="none" viewBox="0 0 24 24">
    <path fill="currentColor" d="M6 4h15a1 1 0 0 1 1 1v7h-2V6H6v3L1 5l5-4v3Zm12 16H3a1.0002 1.0002 0 0 1-1-1v-7h2v6h14v-3l5 4-5 4v-3Z"/>
  </symbol>
  <symbol xmlns="http://www.w3.org/2000/svg" id="task_right" fill="none" viewBox="0 0 24 24">
    <path fill="currentColor" d="M15 18h6v-2h-6v2Zm-6-7v2h12v-2H9ZM3 6v2h18V6H3Z"/>
  </symbol>
  <symbol xmlns="http://www.w3.org/2000/svg" id="task_share" fill="none" viewBox="0 0 24 24">
    <path fill="currentColor" d="M5 11.9408c0-.5559-.4477-1.0066-1-1.0066s-1 .4507-1 1.0066v6.0395C3 19.648 4.3431 21 6 21h12c1.6569 0 3-1.352 3-3.0197v-6.0395c0-.5559-.4477-1.0066-1-1.0066s-1 .4507-1 1.0066v6.0395c0 .5559-.4477 1.0065-1 1.0065H6c-.5523 0-1-.4506-1-1.0065v-6.0395Z"/>
    <path fill="currentColor" d="M12.705 3.2927A.9936.9936 0 0 0 12 3a.9913.9913 0 0 0-.3828.0764.9972.9972 0 0 0-.3243.2184l-4 4.0263c-.3905.3931-.3905 1.0305 0 1.4235a.9954.9954 0 0 0 1.4142 0L11 6.4367v8.6423c0 .556.4477 1.0066 1 1.0066s1-.4506 1-1.0066V6.4367l2.2929 2.308a.9954.9954 0 0 0 1.4142 0c.3905-.3931.3905-1.0305 0-1.4236L12.705 3.2927Z"/>
  </symbol>
  <symbol xmlns="http://www.w3.org/2000/svg" id="task_sort" fill="none" viewBox="0 0 24 24">
    <path fill="currentColor" fill-rule="evenodd" d="m8 10 4-4 4 4H8Zm0 4 4 4 4-4H8Z" clip-rule="evenodd"/>
  </symbol>
  <symbol xmlns="http://www.w3.org/2000/svg" id="task_status" fill="none" viewBox="0 0 24 24">
    <path fill="#fff" d="M0 0h24v24H0z"/>
    <path fill="currentColor" fill-rule="evenodd" d="M10.9999 2.9998C11 2.4475 11.4478 2 12.0001 2a10 10 0 0 1 8.62 4.934.9985.9985 0 0 1 .0782.1356 10.0007 10.0007 0 0 1-.0211 9.8978 10.0005 10.0005 0 0 1-8.6216 5.0324 9.9992 9.9992 0 0 1-8.6788-4.9331 1.004 1.004 0 0 1-.037-.069c-.2742-.4779-.11-1.0879.3674-1.3636L11 11.4236V3.0163l-.0001-.0165Zm4.9927 2.0688a7.9993 7.9993 0 0 1 2.3805 2.0982L13 10.2689v-6.206a7.9998 7.9998 0 0 1 2.9926 1.0057ZM5.6254 16.836l13.7474-7.937a7.9994 7.9994 0 0 1-3.3417 10.01 8.0004 8.0004 0 0 1-7.9862.0459 8.001 8.001 0 0 1-2.4195-2.1189Zm3.624-13.02C9 2.5 7.8326 2.9071 7.8326 2.9071A10.0014 10.0014 0 0 0 2 12c0 .3532.0184.7062.0553 1.0575a1.0001 1.0001 0 0 0 1.4946.7615l5.1995-3.002a.9999.9999 0 0 0 .5-.866V3.8161ZM5.2665 7.678C6 6.5 6.4686 6.1373 7.2495 5.5609v3.8129L4.037 11.2283a8.0015 8.0015 0 0 1 1.2294-3.5501Z" clip-rule="evenodd"/>
  </symbol>
  <symbol xmlns="http://www.w3.org/2000/svg" id="task_subtask" fill="none" viewBox="0 0 24 24">
    <path fill="currentColor" fill-rule="evenodd" d="M.7852 2.5723v11c0 3.1559 2.5583 5.7143 5.7142 5.7143h9.0696c.6502 1.272 1.9735 2.1428 3.5002 2.1428 2.1697 0 3.9286-1.7589 3.9286-3.9286 0-2.1697-1.7589-3.9285-3.9286-3.9285-2.0978 0-3.8116 1.6442-3.9228 3.7143h-8.647c-2.0513 0-3.7142-1.663-3.7142-3.7143V9.2851h12.5466c.5114 1.5756 1.9914 2.7146 3.7374 2.7146 2.1697 0 3.9286-1.7589 3.9286-3.9286 0-2.1696-1.7589-3.9285-3.9286-3.9285-1.9005 0-3.4858 1.3495-3.8499 3.1426H2.7852v-4.713h-2Zm18.284 7.4274c1.0651 0 1.9286-.8634 1.9286-1.9286 0-1.065-.8635-1.9285-1.9286-1.9285-1.0651 0-1.9286.8634-1.9286 1.9285 0 1.0652.8635 1.9286 1.9286 1.9286Zm1.9286 7.5011c0 1.0652-.8635 1.9286-1.9286 1.9286-1.0651 0-1.9286-.8634-1.9286-1.9286 0-1.0651.8635-1.9285 1.9286-1.9285 1.0651 0 1.9286.8634 1.9286 1.9285Z" clip-rule="evenodd"/>
  </symbol>
  <symbol xmlns="http://www.w3.org/2000/svg" id="task_tag" fill="none" viewBox="0 0 24 24">
    <path fill="currentColor" d="m10.8998 2.1001 9.899 1.415 1.414 9.9-9.192 9.192a.9998.9998 0 0 1-1.414 0l-9.9-9.9a.9999.9999 0 0 1 0-1.414l9.193-9.193Zm.707 2.122-7.779 7.778 8.486 8.485 7.778-7.778-1.06-7.425-7.425-1.06Zm2.12 6.364a2.001 2.001 0 0 1 1.4154-3.4153 2.0006 2.0006 0 0 1 1.4141 3.4158 2.001 2.001 0 0 1-2.8295-.0005Z"/>
  </symbol>
  <symbol xmlns="http://www.w3.org/2000/svg" id="task_time" fill="none" viewBox="0 0 24 24">
    <path fill="currentColor" fill-rule="evenodd" d="M4 12c0-4.4183 3.5817-8 8-8s8 3.5817 8 8-3.5817 8-8 8-8-3.5817-8-8Zm8-10C6.4771 2 2 6.4771 2 12c0 5.5228 4.4771 10 10 10 5.5228 0 10-4.4772 10-10 0-5.5229-4.4772-10-10-10Zm1 4.75c0-.5523-.4477-1-1-1s-1 .4477-1 1V12c0 .5523.4477 1 1 1h5.25c.5523 0 1-.4477 1-1s-.4477-1-1-1H13V6.75Z" clip-rule="evenodd"/>
  </symbol>
  <symbol xmlns="http://www.w3.org/2000/svg" id="task_user" fill="none" viewBox="0 0 24 24">
    <path fill="currentColor" fill-rule="evenodd" d="M12 4C9.2386 4 7 6.2386 7 9s2.2386 5 5 5 5-2.2386 5-5-2.2386-5-5-5ZM5 9c0-3.866 3.134-7 7-7s7 3.134 7 7-3.134 7-7 7-7-3.134-7-7Z" clip-rule="evenodd"/>
    <path fill="currentColor" fill-rule="evenodd" d="M12.0013 16a9.5042 9.5042 0 0 0-8.229 4.7494c-.2763.4782-.888.6419-1.3661.3656-.4783-.2763-.642-.8879-.3657-1.3661a11.5034 11.5034 0 0 1 19.9215.0002c.2762.4782.1125 1.0898-.3657 1.3661s-1.0898.1126-1.3661-.3657A9.504 9.504 0 0 0 12.0013 16Z" clip-rule="evenodd"/>
  </symbol>
  <symbol xmlns="http://www.w3.org/2000/svg" id="task_amount" fill="none" viewBox="0 0 24 24">
    <path fill="currentColor" fill-rule="evenodd" d="M14.5821 8.5821c.3905-.3905.3905-1.0237 0-1.4142-.3905-.3905-1.0237-.3905-1.4142 0l-7.543 7.5429-3.4178-3.4177c-.3905-.3906-1.0237-.3905-1.4142 0-.3905.3905-.3905 1.0237 0 1.4142l4.125 4.1248c.3905.3905 1.0237.3905 1.4142 0l8.25-8.25Zm8.6248 0c.3905-.3905.3905-1.0237 0-1.4142-.3905-.3905-1.0237-.3905-1.4142 0l-7.5429 7.5429-1.4841-1.484c-.3905-.3906-1.0237-.3905-1.4142 0-.3905.3905-.3905 1.0237 0 1.4142l2.1912 2.1911c.3905.3905 1.0237.3905 1.4142 0l8.25-8.25Z" clip-rule="evenodd"/>
  </symbol>
  <symbol xmlns="http://www.w3.org/2000/svg" id="task_attach" fill="none" viewBox="0 0 24 24">
    <path fill="currentColor" d="m14.8956 7.2366-6.1034 6.2492a1.1054 1.1054 0 0 0-.2418.3586 1.1277 1.1277 0 0 0-.0073.8543c.0543.1357.1344.2591.2357.3628.1014.1037.2218.1858.3544.2413a1.0576 1.0576 0 0 0 .8346-.0074 1.0789 1.0789 0 0 0 .3502-.2476l6.1045-6.248c.6071-.6216.9482-1.4647.9482-2.3437 0-.879-.3411-1.722-.9482-2.3436-.6072-.6215-1.4307-.9707-2.2893-.9707-.8587 0-1.6822.3492-2.2893.9707l-6.1044 6.2492a5.53 5.53 0 0 0-1.1983 1.7928 5.6361 5.6361 0 0 0-.4303 2.1272 5.6378 5.6378 0 0 0 .4042 2.1325 5.5346 5.5346 0 0 0 1.1762 1.808 5.3866 5.3866 0 0 0 1.7663 1.2039 5.287 5.287 0 0 0 2.0832.4135 5.288 5.288 0 0 0 2.0778-.4408 5.3928 5.3928 0 0 0 1.7511-1.2269l6.1045-6.2481L21 13.4858l-6.1044 6.2492a7.5446 7.5446 0 0 1-2.4507 1.6763A7.4013 7.4013 0 0 1 9.554 22c-.992 0-1.9743-.2-2.8908-.5887a7.5442 7.5442 0 0 1-2.4507-1.6763 7.7481 7.7481 0 0 1-1.6375-2.5088A7.8932 7.8932 0 0 1 2 14.2668c0-1.0155.1954-2.0211.575-2.9594a7.748 7.748 0 0 1 1.6375-2.5088l6.1055-6.2481c1.0176-1.0061 2.3806-1.5629 3.7952-1.5503 1.4147.0126 2.768.5935 3.7683 1.6176 1.0004 1.024 1.5678 2.4094 1.5801 3.8576.0123 1.4483-.5315 2.8435-1.5144 3.8852l-6.1033 6.2514a3.2345 3.2345 0 0 1-1.0506.7185 3.1722 3.1722 0 0 1-1.2391.2521 3.1724 3.1724 0 0 1-1.239-.2524 3.2357 3.2357 0 0 1-1.0505-.7187 3.3207 3.3207 0 0 1-.7017-1.0755 3.3828 3.3828 0 0 1-.2463-1.2685c0-.4353.0838-.8663.2466-1.2684a3.3196 3.3196 0 0 1 .702-1.0753l6.1044-6.2492 1.5259 1.562Z"/>
  </symbol>
  <symbol xmlns="http://www.w3.org/2000/svg" id="action_archive" fill="none" viewBox="0 0 24 24">
    <path fill="currentColor" fill-rule="evenodd" d="M4.7027 2a1.081 1.081 0 0 0-.967.5976L2.1141 5.8408A1.0811 1.0811 0 0 0 2 6.3243v13.7838A1.8919 1.8919 0 0 0 3.8919 22H20.108A1.8919 1.8919 0 0 0 22 20.1081V6.3243c0-.1678-.0391-.3333-.1141-.4835l-1.6217-3.2432A1.081 1.081 0 0 0 19.2973 2H4.7027Zm.1276 3.2432.5405-1.081h13.2584l.5405 1.081H4.8303Zm-.6681 2.1622h15.6756v12.4324H4.1622V7.4054Zm8.6135 3.229c0-.4399-.3472-.7965-.7756-.7966-.4283 0-.7755.3567-.7755.7966l-.0001 4.0513-1.1438-1.1748a.7611.7611 0 0 0-1.0968 0c-.3029.311-.3029.8154 0 1.1265l2.4677 2.5347a.7611.7611 0 0 0 1.0968 0l2.4677-2.5347c.3029-.3111.3029-.8155 0-1.1265a.7611.7611 0 0 0-1.0968 0l-1.1437 1.1748.0001-4.0513Z" clip-rule="evenodd"/>
  </symbol>
  <symbol xmlns="http://www.w3.org/2000/svg" id="action_close" fill="none" viewBox="0 0 24 24">
    <path fill="currentColor" fill-rule="evenodd" d="M19.6977 5.7622c.4031-.4032.4031-1.0567 0-1.4599-.4032-.403-1.0568-.403-1.4599 0L12 10.5402 5.7622 4.3023c-.4032-.403-1.0567-.403-1.4599 0-.403.4032-.403 1.0568 0 1.4599L10.5402 12l-6.2379 6.2378c-.403.4031-.403 1.0567 0 1.4599.4032.4031 1.0568.4031 1.4599 0L12 13.4598l6.2378 6.2379c.4031.4031 1.0567.4031 1.4599 0 .4031-.4032.4031-1.0568 0-1.4599L13.4598 12l6.2379-6.2378Z" clip-rule="evenodd"/>
  </symbol>
  <symbol xmlns="http://www.w3.org/2000/svg" id="action_delete" fill="none" viewBox="0 0 24 24">
    <path fill="currentColor" fill-rule="evenodd" d="M9.7505 1.25a2.5 2.5 0 0 0-2.5 2.5v.5H3.75c-.5523 0-1 .4478-1 1 0 .5523.4477 1 1 1h.5005V19.5a1.75 1.75 0 0 0 1.75 1.75h12a1.75 1.75 0 0 0 1.75-1.75V6.25h.4995c.5523 0 1-.4477 1-1s-.4477-1-1-1h-3.4995v-.5a2.5001 2.5001 0 0 0-2.5-2.5h-4.5Zm5 3v-.5a.5.5 0 0 0-.5-.5h-4.5a.5.5 0 0 0-.5.5v.5h5.5Zm-8.5 15v-13h11.5v13h-11.5Zm3.5-10.5c.5523 0 1 .4477 1 1v6c0 .5523-.4477 1-1 1s-1-.4477-1-1v-6c0-.5523.4477-1 1-1Zm5.5 1c0-.5523-.4477-1-1-1s-1 .4477-1 1v6c0 .5523.4477 1 1 1s1-.4477 1-1v-6Z" clip-rule="evenodd"/>
  </symbol>
  <symbol xmlns="http://www.w3.org/2000/svg" id="action_image" fill="none" viewBox="0 0 24 24">
    <path stroke="currentColor" stroke-linecap="round" stroke-linejoin="round" stroke-width="2" d="M20.25 4.5H3.75a.75.75 0 0 0-.75.75v13.5a.75.75 0 0 0 .75.75h16.5a.75.75 0 0 0 .75-.75V5.25a.75.75 0 0 0-.75-.75Z"/>
    <path stroke="currentColor" stroke-linecap="round" stroke-linejoin="round" stroke-width="2" d="m3 15.7499 4.7197-4.7197a.7509.7509 0 0 1 .5303-.2197.7498.7498 0 0 1 .5303.2197l4.1894 4.1894a.75.75 0 0 0 1.0606 0l1.9394-1.9394a.7503.7503 0 0 1 .8173-.1626.7503.7503 0 0 1 .2433.1626L21 17.2499"/>
    <path fill="currentColor" d="M14.625 10.5c.6213 0 1.125-.5037 1.125-1.125s-.5037-1.125-1.125-1.125-1.125.5037-1.125 1.125.5037 1.125 1.125 1.125Z"/>
  </symbol>
  <symbol xmlns="http://www.w3.org/2000/svg" id="action_message" fill="none" viewBox="0 0 24 24">
    <path fill="currentColor" d="m8.0771 19.3532-4.4091.98.98-4.4092a8.2968 8.2968 0 0 1-.98-3.9242c0-4.6025 3.7308-8.3333 8.3333-8.3333 4.6025 0 8.3333 3.7308 8.3333 8.3333 0 4.6025-3.7308 8.3334-8.3333 8.3334a8.2971 8.2971 0 0 1-3.9242-.98Zm.2417-1.7609.5442.2917a6.6283 6.6283 0 0 0 3.1383.7825 6.6668 6.6668 0 1 0-6.6667-6.6667c0 1.1117.2709 2.1817.7834 3.1384l.2908.5441-.5458 2.4559 2.4558-.5459Z"/>
    <circle cx="20" cy="9" r="3.5" fill="#D44333" stroke="#fff"/>
  </symbol>
  <symbol xmlns="http://www.w3.org/2000/svg" id="action_more" fill="none" viewBox="0 0 24 24">
    <path fill="currentColor" d="M12 3c-1.1 0-2 .9333-2 2.074 0 1.1408.9 2.0742 2 2.0742s2-.9334 2-2.0741C14 3.9333 13.1 3 12 3Zm0 14.5185c-1.1 0-2 .9334-2 2.0741s.9 2.0741 2 2.0741 2-.9334 2-2.0741-.9-2.0741-2-2.0741Zm0-7.2592c-1.1 0-2 .9333-2 2.074 0 1.1408.9 2.0741 2 2.0741s2-.9333 2-2.0741c0-1.1407-.9-2.074-2-2.074Z"/>
  </symbol>
  <symbol xmlns="http://www.w3.org/2000/svg" id="action_move" fill="none" viewBox="0 0 24 24">
    <path fill="currentColor" fill-rule="evenodd" d="M3.2 18.1125V4.6375h5.1333l2.7867 2.09c.3332.25.7385.385 1.155.385H20.8v11H3.2Zm-.275-15.675A1.925 1.925 0 0 0 1 4.3625v14.025a1.925 1.925 0 0 0 1.925 1.925h18.2417A1.8333 1.8333 0 0 0 23 18.4792V6.8375a1.925 1.925 0 0 0-1.925-1.925h-8.7083L9.58 2.8225a1.925 1.925 0 0 0-1.155-.385h-5.5Zm6.0355 9.3858c-.4476 0-.8105.3532-.8105.7891 0 .4358.3629.7891.8105.7891l4.1222.0001-1.1954 1.1638a.7745.7745 0 0 0 0 1.116c.3165.3081.8297.3081 1.1463 0l2.579-2.5109a.7745.7745 0 0 0 0-1.116l-2.579-2.5109c-.3166-.3081-.8298-.3081-1.1463 0a.7745.7745 0 0 0 0 1.116l1.1954 1.1638-4.1222-.0001Z" clip-rule="evenodd"/>
  </symbol>
  <symbol xmlns="http://www.w3.org/2000/svg" id="action_photo" fill="none" viewBox="0 0 24 24">
    <path stroke="currentColor" stroke-linecap="round" stroke-linejoin="round" stroke-width="2" d="M19.5 19.5h-15A1.5 1.5 0 0 1 3 18V7.5A1.5 1.5 0 0 1 4.5 6h2.9995l1.5-2.25h6l1.5 2.25H19.5A1.5001 1.5001 0 0 1 21 7.5V18a1.5001 1.5001 0 0 1-1.5 1.5Z"/>
    <path stroke="currentColor" stroke-linecap="round" stroke-linejoin="round" stroke-width="2" d="M12 15.75c1.864 0 3.375-1.511 3.375-3.375S13.864 9 12 9s-3.375 1.511-3.375 3.375S10.136 15.75 12 15.75Z"/>
  </symbol>
  <symbol xmlns="http://www.w3.org/2000/svg" id="action_rename" fill="none" viewBox="0 0 24 24">
    <path fill="currentColor" fill-rule="evenodd" d="m4.9326 15.1059 7.8346-7.8347 3.9617 3.9617-7.8347 7.8346-3.9616-3.9616Zm-2.3599-.3606a1.0192 1.0192 0 0 0-.0352.0939 1.8073 1.8073 0 0 0-.098.5873v4.3267a1.8076 1.8076 0 0 0 1.8074 1.8075h4.6318l.0153.0001h11.6191c.5704 0 1.0328-.4624 1.0328-1.0328s-.4624-1.0328-1.0328-1.0328h-9.1253l7.5245-7.5245.0075-.0075.0075-.0075 2.5434-2.5435a1.8073 1.8073 0 0 0 0-2.556L17.144 2.5293l-.5375.5375.5375-.5375a1.8075 1.8075 0 0 0-2.5561 0l.7154.7154-.7154-.7154-11.619 11.619a1.8082 1.8082 0 0 0-.3962.5969Zm3.8278 4.7497H4.5051v-1.8954l1.8954 1.8954ZM14.228 5.8106l3.9616 3.9616 1.638-1.638-3.9616-3.9616-1.638 1.638Z" clip-rule="evenodd"/>
  </symbol>
  <symbol xmlns="http://www.w3.org/2000/svg" id="folder_pantone" fill="none" viewBox="0 0 24 24">
    <path fill="currentColor" d="m3.9984 18.922-1.35-.545a1 1 0 0 1-.552-1.302l1.902-4.708v6.555ZM8.8584 21h-1.86a.9997.9997 0 0 1-1-1v-6.078L8.8584 21ZM6.0204 5.968l9.272-3.746a1 1 0 0 1 1.301.552l5.62 13.908a.9996.9996 0 0 1-.2265 1.0882.9996.9996 0 0 1-.3265.2138l-9.272 3.746a1.0001 1.0001 0 0 1-1.302-.553L5.4684 7.27a1 1 0 0 1 .553-1.301l-.001-.001ZM8.9984 9a1 1 0 1 0 0-2 1 1 0 0 0 0 2Z"/>
  </symbol>
  <symbol xmlns="http://www.w3.org/2000/svg" id="folder_pencil" fill="none" viewBox="0 0 24 24">
    <path fill="currentColor" d="M5 18v2h4v-2H5ZM3 7l4-5 4 5v15H3V7Zm18 1h-2v2h2v2h-3v2h3v2h-2v2h2v3a1.0001 1.0001 0 0 1-1 1h-6a1.0001 1.0001 0 0 1-1-1V5a1.0002 1.0002 0 0 1 1-1h6a1 1 0 0 1 1 1v3Z"/>
  </symbol>
  <symbol xmlns="http://www.w3.org/2000/svg" id="folder_photo" fill="none" viewBox="0 0 24 24">
    <path fill="currentColor" d="M16.5 4h-9C5.0147 4 3 6.0147 3 8.5v9C3 19.9853 5.0147 22 7.5 22h9c2.4853 0 4.5-2.0147 4.5-4.5v-9C21 6.0147 18.9853 4 16.5 4Z"/>
    <path fill="#fff" d="M12 16.1875c1.7604 0 3.1875-1.4271 3.1875-3.1875S13.7604 9.8125 12 9.8125 8.8125 11.2396 8.8125 13 10.2396 16.1875 12 16.1875Zm4.875-6.5625c.8284 0 1.5-.6716 1.5-1.5s-.6716-1.5-1.5-1.5-1.5.6716-1.5 1.5.6716 1.5 1.5 1.5Z"/>
  </symbol>
  <symbol xmlns="http://www.w3.org/2000/svg" id="folder_pie" fill="none" viewBox="0 0 24 24">
    <path fill="currentColor" d="M11 2.0498v10.95h10.95c-.501 5.053-4.765 9-9.95 9-5.523 0-10-4.477-10-10 0-5.185 3.947-9.449 9-9.95Zm2 0a10.003 10.003 0 0 1 8.95 8.95H13v-8.95Z"/>
  </symbol>
  <symbol xmlns="http://www.w3.org/2000/svg" id="folder_plant" fill="none" viewBox="0 0 24 24">
    <path fill="currentColor" d="M21 3v2c0 3.866-3.134 7-7 7h-1v1h5v7c0 1.105-.895 2-2 2H8c-1.105 0-2-.895-2-2v-7h5v-3c0-3.866 3.134-7 7-7h3ZM5.5 2c2.529 0 4.765 1.251 6.124 3.169C10.604 6.51 10 8.185 10 10v1h-.5C5.358 11 2 7.642 2 3.5V2h3.5Z"/>
  </symbol>
  <symbol xmlns="http://www.w3.org/2000/svg" id="folder_pushpin" fill="none" viewBox="0 0 24 24">
    <path fill="currentColor" d="m22.3147 10.172-1.415 1.414-.707-.707-4.242 4.242-.707 3.536-1.415 1.414-4.242-4.243-4.95 4.95-1.414-1.414 4.95-4.95-4.243-4.242 1.414-1.415 3.537-.707 4.242-4.242-.707-.707 1.414-1.415 8.485 8.486Z"/>
  </symbol>
  <symbol xmlns="http://www.w3.org/2000/svg" id="folder_rocket" fill="none" viewBox="0 0 24 24">
    <path fill="currentColor" d="M5.3288 15.9289a13.064 13.064 0 0 1-.33-2.929c0-5.088 2.903-9.436 6.9999-11.182 4.097 1.746 7 6.094 7 11.182 0 1.01-.114 1.991-.33 2.929l2.02 1.796a.5002.5002 0 0 1 .097.63l-2.458 4.096a.4988.4988 0 0 1-.5912.2151.5005.5005 0 0 1-.1908-.1191l-2.254-2.254a.9994.9994 0 0 0-.707-.293h-5.172a.9995.9995 0 0 0-.707.293l-2.254 2.254a.4996.4996 0 0 1-.4144.1426.4991.4991 0 0 1-.3676-.2386l-2.458-4.095a.5.5 0 0 1 .097-.631l2.02-1.796Zm6.6699-2.929a2 2 0 1 0 .0001-4 2 2 0 0 0-.0001 4Z"/>
  </symbol>
  <symbol xmlns="http://www.w3.org/2000/svg" id="folder_save" fill="none" viewBox="0 0 24 24">
    <path fill="currentColor" d="m19 22-7.0008-4.1304L5 22V3.826c0-.219.0922-.4291.2563-.584.164-.155.3866-.242.6187-.242h12.25c.2321 0 .4546.087.6187.242.1641.1549.2563.365.2563.584V22Z"/>
  </symbol>
  <symbol xmlns="http://www.w3.org/2000/svg" id="folder_send" fill="none" viewBox="0 0 24 24">
    <path fill="currentColor" d="M1.9468 9.315c-.522-.174-.527-.455.01-.634l19.087-6.362c.529-.176.832.12.684.638l-5.454 19.086c-.15.529-.455.547-.679.045L12.0008 14l6-8-8 6-8.054-2.685Z"/>
  </symbol>
  <symbol xmlns="http://www.w3.org/2000/svg" id="folder_settings" fill="none" viewBox="0 0 24 24">
    <path fill="currentColor" d="M9.952 2.2102a9.9903 9.9903 0 0 1 4.0911-.002 3.9928 3.9928 0 0 0 1.955 2.862 3.9932 3.9932 0 0 0 3.457.261 9.9894 9.9894 0 0 1 2.043 3.545 3.9926 3.9926 0 0 0-1.5 3.124c0 1.264.586 2.391 1.502 3.124a10.043 10.043 0 0 1-2.046 3.543 3.9938 3.9938 0 0 0-3.456.261 3.993 3.993 0 0 0-1.954 2.86 9.9903 9.9903 0 0 1-4.091.004 3.9927 3.9927 0 0 0-1.955-2.865 3.9923 3.9923 0 0 0-3.457-.26 9.9898 9.9898 0 0 1-2.043-3.546 3.993 3.993 0 0 0 1.5-3.122 3.9933 3.9933 0 0 0-1.502-3.124 10.0432 10.0432 0 0 1 2.046-3.543 3.9931 3.9931 0 0 0 3.456-.261 3.9929 3.9929 0 0 0 1.954-2.86v-.001Zm2.0461 12.79A3 3 0 1 0 11.998 9a3 3 0 0 0 .0001 6.0002Z"/>
  </symbol>
  <symbol xmlns="http://www.w3.org/2000/svg" id="folder_slideshow" fill="none" viewBox="0 0 24 24">
    <path fill="currentColor" d="M13 18v2h4v2H7v-2h4v-2H3a1.0002 1.0002 0 0 1-1-1V4a1 1 0 0 1 1-1h18a1 1 0 0 1 1 1v13a1.0001 1.0001 0 0 1-1 1h-8ZM10 7.5v6l5-3-5-3Z"/>
  </symbol>
  <symbol xmlns="http://www.w3.org/2000/svg" id="folder_tools" fill="none" viewBox="0 0 24 24">
    <path fill="currentColor" d="M5.33 3.2709a3.5001 3.5001 0 0 1 4.472 4.474l10.8449 10.845-2.122 2.121-10.845-10.844a3.5001 3.5001 0 0 1-4.472-4.474l2.236 2.237a1.5 1.5 0 1 0 2.121-2.121l-2.236-2.239.001.001Zm10.3669 1.884 3.182-1.768 1.414 1.414-1.768 3.182-1.768.354-2.12 2.121-1.415-1.414 2.121-2.121.354-1.768Zm-7.071 7.778 2.121 2.122-4.95 4.95a1.5002 1.5002 0 0 1-2.5515-.9549 1.4999 1.4999 0 0 1 .3345-1.0601l.097-.107 4.95-4.95h-.001Z"/>
  </symbol>
  <symbol xmlns="http://www.w3.org/2000/svg" id="folder_wallet" fill="none" viewBox="0 0 24 24">
    <path fill="currentColor" d="M22 6h-7a5.9999 5.9999 0 0 0-4.2426 10.2426A5.9996 5.9996 0 0 0 15 18h7v2a1.0001 1.0001 0 0 1-1 1H3a1.0002 1.0002 0 0 1-1-1V4a1 1 0 0 1 1-1h18a1 1 0 0 1 1 1v2Zm-7 2h8v8h-8a3.9996 3.9996 0 0 1-2.8284-1.1716 3.9996 3.9996 0 0 1 0-5.6568A3.9998 3.9998 0 0 1 15 8Zm0 3v2h3v-2h-3Z"/>
  </symbol>
  <symbol xmlns="http://www.w3.org/2000/svg" id="folder_alarm" fill="none" viewBox="0 0 24 24">
    <path fill="currentColor" d="M11.9991 22.0001a8.9999 8.9999 0 1 1 0-17.9998 8.9999 8.9999 0 0 1 0 17.9998Zm1-9v-5h-2v7h5v-2h-3Zm-11.253-6.718 3.535-3.535 1.415 1.414-3.537 3.536-1.413-1.415Zm16.97-3.535 3.536 3.535-1.414 1.415-3.536-3.536 1.415-1.414h-.001Z"/>
  </symbol>
  <symbol xmlns="http://www.w3.org/2000/svg" id="folder_apps" fill="none" viewBox="0 0 24 24">
    <path fill="currentColor" d="M6.75 2.5A4.25 4.25 0 0 1 11 6.75V11H6.75a4.2501 4.2501 0 0 1 0-8.5Zm0 10.5H11v4.25A4.25 4.25 0 1 1 6.75 13Zm10.5-10.5a4.2499 4.2499 0 1 1 0 8.5H13V6.75a4.2501 4.2501 0 0 1 4.25-4.25ZM13 13h4.25A4.25 4.25 0 1 1 13 17.25V13Z"/>
  </symbol>
  <symbol xmlns="http://www.w3.org/2000/svg" id="folder_archive" fill="none" viewBox="0 0 24 24">
    <path fill="currentColor" d="m20 3 2 4v13a1.0001 1.0001 0 0 1-1 1H3a1.0002 1.0002 0 0 1-1-1V7.004L4 3h16Zm-8 7-4 4h3v4h2v-4h3l-4-4Zm6.764-5H5.236l-.999 2h15.527l-1-2Z"/>
  </symbol>
  <symbol xmlns="http://www.w3.org/2000/svg" id="folder_book-mark" fill="none" viewBox="0 0 24 24">
    <path fill="currentColor" d="M20 22H6.5A3.4999 3.4999 0 0 1 3 18.5V5a3 3 0 0 1 3-3h14a1 1 0 0 1 1 1v18a1.0001 1.0001 0 0 1-1 1Zm-1-2v-3H6.5a1.5 1.5 0 1 0 0 3H19ZM10 4v8l3.5-2 3.5 2V4h-7Z"/>
  </symbol>
  <symbol xmlns="http://www.w3.org/2000/svg" id="folder_book-open" fill="none" viewBox="0 0 24 24">
    <path fill="currentColor" d="M21 21h-8V6a3 3 0 0 1 3-3h5a1 1 0 0 1 1 1v16a1.0001 1.0001 0 0 1-1 1Zm-10 0H3a1.0002 1.0002 0 0 1-1-1V4a1 1 0 0 1 1-1h5a3 3 0 0 1 3 3v15Zm0 0h2v2h-2v-2Z"/>
  </symbol>
  <symbol xmlns="http://www.w3.org/2000/svg" id="folder_brush" fill="none" viewBox="0 0 24 24">
    <path fill="currentColor" d="m13.289 6.2158 4.939-3.841a1 1 0 0 1 1.32.082l2.995 2.994a1 1 0 0 1 .082 1.321l-3.84 4.938a7.5048 7.5048 0 0 1-7.283 9.2921C8 21.0019 3.5 19.4998 1 17.9998c3.98-3 3.047-4.81 3.5-6.5 1.058-3.95 4.842-6.257 8.789-5.284Zm3.413 1.879c.065.063.13.128.193.194l1.135 1.134 2.475-3.182-1.746-1.746-3.182 2.475 1.125 1.125Z"/>
  </symbol>
  <symbol xmlns="http://www.w3.org/2000/svg" id="folder_bus" fill="none" viewBox="0 0 24 24">
    <path fill="currentColor" d="M17 20H7v1a1 1 0 0 1-1 1H4a1.0002 1.0002 0 0 1-1-1v-9H2V8h1V5a2 2 0 0 1 2-2h14a2 2 0 0 1 2 2v3h1v4h-1v9a1.0001 1.0001 0 0 1-1 1h-2a1.0001 1.0001 0 0 1-1-1v-1ZM5 5v7h14V5H5Zm2.5 13a1.5 1.5 0 1 0 .0001-3A1.5 1.5 0 0 0 7.5 18Zm9 0a1.5001 1.5001 0 1 0 0-3.0002A1.5001 1.5001 0 0 0 16.5 18Z"/>
  </symbol>
  <symbol xmlns="http://www.w3.org/2000/svg" id="folder_chat" fill="none" viewBox="0 0 24 24">
    <path fill="currentColor" d="M12 2c5.523 0 10 4.477 10 10s-4.477 10-10 10c-1.702 0-3.305-.425-4.708-1.175L2 22l1.176-5.29C2.426 15.306 2 13.703 2 12 2 6.477 6.477 2 12 2Zm1 5h-2v7h6v-2h-4V7Z"/>
  </symbol>
  <symbol xmlns="http://www.w3.org/2000/svg" id="folder_cloud" fill="none" viewBox="0 0 24 24">
    <path fill="currentColor" d="M17.001 8.0057a8.0026 8.0026 0 0 0-4.5567 1.4234 7.9996 7.9996 0 0 0-2.935 3.7645l1.8737.7027a5.9992 5.9992 0 0 1 2.657-3.1053 6.0015 6.0015 0 0 1 7.5628 1.3711A5.9987 5.9987 0 0 1 23 16.0024a5.9968 5.9968 0 0 1-1.7571 4.241A5.9997 5.9997 0 0 1 17.001 22H7.0027a5.9996 5.9996 0 0 1-3.8706-1.4123 5.997 5.997 0 0 1-1.3032-7.6272 5.9989 5.9989 0 0 1 3.1822-2.6168 6.996 6.996 0 0 1 1.563-4.7645 7.0002 7.0002 0 0 1 9.2533-1.441 6.9972 6.9972 0 0 1 2.9383 4.0634 8.0278 8.0278 0 0 0-1.7647-.196Z"/>
  </symbol>
  <symbol xmlns="http://www.w3.org/2000/svg" id="folder_cup" fill="none" viewBox="0 0 24 24">
    <path fill="currentColor" fill-rule="evenodd" d="M9.25 3.25c0-.5523-.4477-1-1-1s-1 .4477-1 1v3c0 .5523.4477 1 1 1s1-.4477 1-1v-3Zm3 0c0-.5523-.4477-1-1-1s-1 .4477-1 1v3c0 .5523.4477 1 1 1s1-.4477 1-1v-3Zm6.2498 6c0-.5523.4478-1 1-1a4.0002 4.0002 0 0 1 4 4V13a4 4 0 0 1-4 4h-.3167c-.5523 0-1-.4477-1-1s.4477-1 1-1h.3167a2 2 0 0 0 2-2v-.75a2.0003 2.0003 0 0 0-2-2c-.5522 0-1-.4477-1-1Zm-3.2498-6c0-.5523-.4477-1-1-1s-1 .4477-1 1v3c0 .5523.4477 1 1 1s1-.4477 1-1v-3Z" clip-rule="evenodd"/>
    <path fill="currentColor" fill-rule="evenodd" d="M6.1669 19.25A8.2514 8.2514 0 0 1 3 12.75v-4.5h16.5v4.5a8.2507 8.2507 0 0 1-3.1669 6.5H19.5c.5523 0 1 .4477 1 1s-.4477 1-1 1H3c-.5523 0-1-.4477-1-1s.4477-1 1-1h3.1669Z" clip-rule="evenodd"/>
  </symbol>
  <symbol xmlns="http://www.w3.org/2000/svg" id="folder_data" fill="none" viewBox="0 0 24 24">
    <path fill="currentColor" d="M21 9.5v3c0 2.485-4.03 4.5-9 4.5s-9-2.015-9-4.5v-3c0 2.485 4.03 4.5 9 4.5s9-2.015 9-4.5Zm-18 5c0 2.485 4.03 4.5 9 4.5s9-2.015 9-4.5v3c0 2.485-4.03 4.5-9 4.5s-9-2.015-9-4.5v-3Zm9-2.5c-4.97 0-9-2.015-9-4.5S7.03 3 12 3s9 2.015 9 4.5-4.03 4.5-9 4.5Z"/>
  </symbol>
  <symbol xmlns="http://www.w3.org/2000/svg" id="folder_fire" fill="none" viewBox="0 0 24 24">
    <path fill="currentColor" d="M6.0038 5.9856C4.3498 8.4816 3 11.3328 3 13.991a9.0135 9.0135 0 0 0 2.636 6.3703A8.9955 8.9955 0 0 0 12 23a8.9958 8.9958 0 0 0 6.364-2.6387A9.0136 9.0136 0 0 0 21 13.991C21 8.414 17.1429 4.124 14.0168 1h-.0001l-3.731 7.843L6.004 5.9857l-.0001-.0001Z"/>
  </symbol>
  <symbol xmlns="http://www.w3.org/2000/svg" id="folder_folder" fill="none" viewBox="0 0 24 24">
    <path fill="currentColor" d="M22 9.1579v11.1403c0 .1862-.078.3647-.217.4963-.1389.1316-.3273.2055-.5237.2055H2.8333c-.221 0-.433-.0832-.5892-.2312C2.0878 20.6207 2 20.4199 2 20.2105V6.7895c0-.2094.0878-.4102.244-.5583.1564-.148.3683-.2312.5893-.2312H8.389a.8643.8643 0 0 1 .5.1579l2.8889 2.0526a.8642.8642 0 0 0 .5.158h8.8889c.221 0 .4329.0831.5892.2312.1563.148.2441.3488.2441.5582Z"/>
  </symbol>
  <symbol xmlns="http://www.w3.org/2000/svg" id="folder_flag" fill="none" viewBox="0 0 24 24">
    <path fill="currentColor" d="M3 3h9.382a.9998.9998 0 0 1 .894.553L14 5h6a1 1 0 0 1 1 1v11a1.0001 1.0001 0 0 1-1 1h-6.382a.9996.9996 0 0 1-.894-.553L12 16H5v6H3V3Z"/>
  </symbol>
  <symbol xmlns="http://www.w3.org/2000/svg" id="folder_hart" fill="none" viewBox="0 0 24 24">
    <path fill="currentColor" stroke="currentColor" stroke-linecap="round" stroke-linejoin="round" stroke-width="2" d="M12 20.25S2.625 15 2.625 8.625A4.8758 4.8758 0 0 1 12 6.7467h0a4.8758 4.8758 0 0 1 9.375 1.8783C21.375 15 12 20.25 12 20.25Z"/>
  </symbol>
  <symbol xmlns="http://www.w3.org/2000/svg" id="folder_image" fill="none" viewBox="0 0 24 24">
    <path fill="currentColor" d="M20 5H4v14l9.292-9.294a.9999.9999 0 0 1 1.414 0L20 15.01V5ZM2 3.993A1 1 0 0 1 2.992 3h18.016c.548 0 .992.445.992.993v16.014a1 1 0 0 1-.992.993H2.992A.9931.9931 0 0 1 2 20.007V3.993ZM8 11a1.9999 1.9999 0 1 1 0-3.9998A1.9999 1.9999 0 0 1 8 11Z"/>
  </symbol>
  <symbol xmlns="http://www.w3.org/2000/svg" id="folder_lightbulb" fill="none" viewBox="0 0 24 24">
    <path fill="currentColor" d="M11.0002 18h-3.059c-.297-1.273-1.637-2.314-2.187-3a8.0002 8.0002 0 0 1 6.2471-12.999 7.9997 7.9997 0 0 1 7.9469 8.9085 7.9995 7.9995 0 0 1-1.704 4.0925c-.55.685-1.888 1.726-2.185 2.998h-3.059v-5h-2v5Zm5 2v1a2 2 0 0 1-2 2h-4a1.9999 1.9999 0 0 1-2-2v-1h8Z"/>
  </symbol>
  <symbol xmlns="http://www.w3.org/2000/svg" id="folder_layout" fill="none" viewBox="0 0 24 24">
    <path fill="currentColor" d="M7 10v11H3a1.0002 1.0002 0 0 1-1-1V10h5Zm15 0v10a1.0001 1.0001 0 0 1-1 1H9V10h13Zm-1-7a1 1 0 0 1 1 1v4H2V4a1 1 0 0 1 1-1h18Z"/>
  </symbol>
  <symbol xmlns="http://www.w3.org/2000/svg" id="folder_home" fill="none" viewBox="0 0 24 24">
    <path fill="currentColor" d="M14.4539 21.1605v-5.0334a.85.85 0 0 0-.2396-.5932.808.808 0 0 0-.5785-.2457H10.363a.808.808 0 0 0-.5785.2457.85.85 0 0 0-.2396.5932v5.0334a.8498.8498 0 0 1-.2397.5931.808.808 0 0 1-.5784.2457L3.8183 22a.8018.8018 0 0 1-.3131-.0638.818.818 0 0 1-.2655-.1819.84.84 0 0 1-.1774-.2721A.8576.8576 0 0 1 3 21.1611v-9.6953a.8564.8564 0 0 1 .07-.3393.8384.8384 0 0 1 .1978-.2814l8.1812-7.6269A.8071.8071 0 0 1 11.9994 3a.8068.8068 0 0 1 .5504.2182l8.1824 7.6269a.8404.8404 0 0 1 .1979.2814.857.857 0 0 1 .0699.3393v9.6953a.858.858 0 0 1-.0623.3211.8396.8396 0 0 1-.1774.2721.8187.8187 0 0 1-.2654.1819.802.802 0 0 1-.3132.0638l-4.9097-.0007a.8082.8082 0 0 1-.5785-.2457.8498.8498 0 0 1-.2396-.5931Z"/>
  </symbol>
  <symbol xmlns="http://www.w3.org/2000/svg" id="folder_lock" fill="none" viewBox="0 0 24 24">
    <path fill="currentColor" d="M18 8h2a1 1 0 0 1 1 1v12a1.0001 1.0001 0 0 1-1 1H4a1.0002 1.0002 0 0 1-1-1V9a1 1 0 0 1 1-1h2V7a6 6 0 1 1 12 0v1Zm-2 0V7a3.9998 3.9998 0 0 0-4-4 4 4 0 0 0-4 4v1h8Zm-9 3v2h2v-2H7Zm0 3v2h2v-2H7Zm0 3v2h2v-2H7Z"/>
  </symbol>
  <symbol xmlns="http://www.w3.org/2000/svg" id="folder_location" fill="none" viewBox="0 0 24 24">
    <path fill="currentColor" d="M20 10.6923C20 17.6154 12 23 12 23s-8-5.3846-8-12.3077c0-2.0401.8429-3.9967 2.3431-5.4393C7.8434 3.8104 9.8783 3 12 3s4.1566.8104 5.6569 2.253C19.1571 6.6956 20 8.6522 20 10.6923Z"/>
    <path fill="#fff" d="M12 13.75c1.6569 0 3-1.3431 3-3s-1.3431-3-3-3-3 1.3431-3 3 1.3431 3 3 3Z"/>
  </symbol>
  <symbol xmlns="http://www.w3.org/2000/svg" id="folder_paint-brush" fill="none" viewBox="0 0 24 24">
    <path fill="currentColor" d="M4 3h16a1 1 0 0 1 1 1v5a1.0002 1.0002 0 0 1-1 1H4a1 1 0 0 1-1-1V4a1 1 0 0 1 1-1Zm2 9h6a1.0001 1.0001 0 0 1 1 1v3h1v6h-4v-6h1v-2H5a1.0002 1.0002 0 0 1-1-1v-2h2v1Zm11.732 1.732 1.768-1.768 1.768 1.768a2.4997 2.4997 0 0 1 .5416 2.7244 2.4998 2.4998 0 0 1-4.6192 0 2.4995 2.4995 0 0 1 .5416-2.7244Z"/>
  </symbol>
  <symbol xmlns="http://www.w3.org/2000/svg" id="file_jpg" fill="none" viewBox="0 0 24 24">
    <path fill="#D9BC22" fill-rule="evenodd" d="M5.8984 2c-1.1045 0-2 .8954-2 2v16c0 1.1046.8955 2 2 2h12.2c1.1046 0 2-.8954 2-2V7.0001l-4.9999-4.9999h3.0289A1.9922 1.9922 0 0 0 18.0984 2h-12.2Z" clip-rule="evenodd"/>
    <path fill="#fff" d="m7.4714 16.4935 1.8223-2.6785a.2836.2836 0 0 1 .3287-.1078.283.283 0 0 1 .1043.0652l1.2044 1.18 2.6425-4.1419a.2829.2829 0 0 1 .2453-.1311.283.283 0 0 1 .2392.142l3.2832 5.69a.2821.2821 0 0 1 .0381.1417.2823.2823 0 0 1-.1417.2455.283.283 0 0 1-.1419.0379h-9.39a.284.284 0 0 1-.251-.1507.2834.2834 0 0 1 .0164-.2923h.0002Zm.5457-6.0649a1.4286 1.4286 0 1 0 2.8572 0 1.4286 1.4286 0 0 0-2.8572 0Z"/>
    <path fill="url(#paint0_linear_71_9674)" d="M19.6325 6.5313h-4.0622l4.5313 4.5312V7l-.4691-.4688Z"/>
    <path fill="#FBDE99" d="M16.1016 7h4l-5-5v4c0 .5523.4477 1 1 1Z"/>
    <defs>
      <linearGradient id="paint0_linear_71_9674" x1="16.5859" x2="21.1172" y1="5.5156" y2="10.0469" gradientUnits="userSpaceOnUse">
        <stop stop-opacity=".2"/>
        <stop offset="1" stop-opacity="0"/>
      </linearGradient>
    </defs>
  </symbol>
  <symbol xmlns="http://www.w3.org/2000/svg" id="file_mov" fill="none" viewBox="0 0 24 24">
    <path fill="#7C8EEE" fill-rule="evenodd" d="M5.8984 2c-1.1045 0-2 .8954-2 2v16c0 1.1046.8955 2 2 2h12.2c1.1046 0 2-.8954 2-2V3.9863v3.014l-5-5h3.029A1.9922 1.9922 0 0 0 18.0984 2h-12.2Z" clip-rule="evenodd"/>
    <path fill="#fff" d="m15.8183 13.3143-5.8314 3.4762c-.3896.2348-.8853-.0471-.8853-.505V9.333c0-.4462.4957-.728.8853-.505l5.8313 3.4763c.3777.235.3777.7869 0 1.01h.0001Z"/>
    <path fill="url(#paint0_linear_71_9675)" d="M19.6325 6.5313h-4.0622l4.5313 4.5312V7l-.4691-.4688Z"/>
    <path fill="#CAD1F8" d="M16.1016 7h4l-5-5v4c0 .5523.4477 1 1 1Z"/>
    <defs>
      <linearGradient id="paint0_linear_71_9675" x1="16.5859" x2="21.1172" y1="5.5156" y2="10.0469" gradientUnits="userSpaceOnUse">
        <stop stop-opacity=".2"/>
        <stop offset="1" stop-opacity="0"/>
      </linearGradient>
    </defs>
  </symbol>
  <symbol xmlns="http://www.w3.org/2000/svg" id="file_mp3" fill="none" viewBox="0 0 24 24">
    <path fill="#F16C00" fill-rule="evenodd" d="M5.8984 2c-1.1045 0-2 .8954-2 2v16c0 1.1046.8955 2 2 2h12.2c1.1046 0 2-.8954 2-2V3.9882v3.012l-5-5h3.029A1.9922 1.9922 0 0 0 18.0984 2h-12.2Z" clip-rule="evenodd"/>
    <path fill="#fff" d="M16.2149 11.9802a1.1483 1.1483 0 0 1-.1719.4129c-.0683.1037-.1375.1732-.2069.138-.0682 0-.1035-.4481-.1366-.5176a1.3405 1.3405 0 0 1-.1034-.3788c-.0342-.2757-.1376-.5185-.3105-.6212-.1717-.1379-.4117-.2417-.7221-.3113a2.2693 2.2693 0 0 1-.9293-.4127c-.2751-.2075-.5844-.3797-.7562-.5872-.1729-.1721-.3105-.2075-.3788-.1721-.1035.0343-.1376.138-.1376.2416v6.4157c0 .1732-.0341.3796-.1035.5871-.0682.2075-.1035.4137-.2752.6202-.1718.2075-.4128.3454-.7222.4834-.3105.138-.6881.2075-1.1019.2416a2.4933 2.4933 0 0 1-1.2386-.2416 2.4687 2.4687 0 0 1-.8598-.6556c-.2069-.2759-.3104-.5518-.3104-.8973 0-.31.1387-.6202.448-.8962.2752-.2759.5846-.4833.9291-.587.3437-.1038.654-.1721.9634-.1721.3104 0 .7915 0 1.0325.0693.2401.0685.413.1038.5505.138V8.7711a.8431.8431 0 0 1 .1719-.5167c.1033-.138.2751-.2074.4469-.2416.1728-.0342.3105 0 .4138.1038.1035.0684 0 .2073.1367.3442.1035.138.2411.3113.4138.5176.1718.2075.3777.3797.6529.552.2411.172.448.2758.6198.3796.1718.0685.3446.138.4822.2075.1375.0683.3094.1368.447.2406.1375.1037.3104.2416.4811.4491.1728.2075.2753.3786.3104.586 0 .2075 0 .4139-.0351.5861v.001-.0001Z"/>
    <path fill="url(#paint0_linear_71_9670)" d="M19.6325 6.5313h-4.0622l4.5313 4.5312V7l-.4691-.4688Z"/>
    <path fill="#F9C499" d="M16.1016 7h4l-5-5v4c0 .5523.4477 1 1 1Z"/>
    <defs>
      <linearGradient id="paint0_linear_71_9670" x1="16.5859" x2="21.1172" y1="5.5156" y2="10.0469" gradientUnits="userSpaceOnUse">
        <stop stop-opacity=".2"/>
        <stop offset="1" stop-opacity="0"/>
      </linearGradient>
    </defs>
  </symbol>
  <symbol xmlns="http://www.w3.org/2000/svg" id="file_pdf" fill="none" viewBox="0 0 24 24">
    <path fill="#FA4E4E" fill-rule="evenodd" d="M5.8984 2c-1.1045 0-2 .8954-2 2v16c0 1.1046.8955 2 2 2h12.2c1.1046 0 2-.8954 2-2V3.987v3.0132l-5-5h3.029A1.9922 1.9922 0 0 0 18.0984 2h-12.2Z" clip-rule="evenodd"/>
    <path fill="#fff" d="M15.2481 15.4693c-.6749-.0501-1.3246-.3007-1.8495-.7518-1.0247.2255-1.9996.5512-2.9744.9523-.7747 1.3784-1.4996 2.0802-2.1245 2.0802-.125 0-.2748-.025-.3748-.1003-.275-.1252-.4249-.401-.4249-.6766 0-.2256.05-.8521 2.4244-1.8798.55-1.0025.9747-2.03 1.3247-3.1076-.3-.6015-.9497-2.0802-.5-2.832.15-.2757.45-.4261.775-.401.2499 0 .4998.1253.6498.3258.325.451.3 1.4035-.125 2.807.4.7508.9239 1.4286 1.5496 2.005.525-.1004 1.0497-.1755 1.5746-.1755 1.1748.025 1.3498.5763 1.3248.9022 0 .8521-.8249.8521-1.2498.8521Zm-6.9982 1.5538.075-.025c.3498-.1253.6247-.3759.8247-.7018-.375.1504-.6748.401-.8997.7269v-.0001Zm3.3241-7.5185h-.075c-.025 0-.075 0-.1.025-.1.426-.025.8771.15 1.2781.15-.426.15-.8771.025-1.3031Zm.175 3.634-.025.05-.025-.025c-.225.5765-.475 1.1529-.7499 1.7042l.05-.025v.05a14.5208 14.5208 0 0 1 1.6996-.5012l-.025-.025h.075c-.375-.376-.7248-.802-.9997-1.228Zm3.3991 1.3282c-.225 0-.4249 0-.6499.05.25.1254.5.1755.7499.2007.175.025.35 0 .4999-.0502 0-.0752-.1-.2005-.5999-.2005Z"/>
    <path fill="#D44333" d="M19.6325 6.5313h-4.0622l4.5313 4.5312V7l-.4691-.4688Z"/>
    <path fill="#FDB8B8" d="M16.1016 7h4l-5-5v4c0 .5523.4477 1 1 1Z"/>
  </symbol>
  <symbol xmlns="http://www.w3.org/2000/svg" id="file_ppt" fill="none" viewBox="0 0 24 24">
    <path fill="#FA4E4E" fill-rule="evenodd" d="M5.8984 2c-1.1045 0-2 .8954-2 2v16c0 1.1046.8955 2 2 2h12.2c1.1046 0 2-.8954 2-2V3.987v3.0132l-5-5h3.029A1.9922 1.9922 0 0 0 18.0984 2h-12.2Z" clip-rule="evenodd"/>
    <path fill="#D44333" d="M19.6325 6.5313h-4.0622l4.5313 4.5312V7l-.4691-.4688Z"/>
    <path fill="#FDB8B8" d="M16.1016 7h4l-5-5v4c0 .5523.4477 1 1 1Z"/>
    <path fill="#fff" d="M7.3164 15.0001h.7688v-1.1789h.6463c.8363 0 1.3228-.499 1.3228-1.2252 0-.7226-.4776-1.2322-1.3032-1.2322H7.3164v3.6363Zm.7688-1.7951v-1.2127h.5185c.4439 0 .6587.2415.6587.6037 0 .3605-.2148.609-.6552.609h-.522Zm2.4685 1.7951h.7688v-1.1789h.6463c.8363 0 1.3228-.499 1.3228-1.2252 0-.7226-.4776-1.2322-1.3032-1.2322h-1.4347v3.6363Zm.7688-1.7951v-1.2127h.5185c.4439 0 .6587.2415.6587.6037 0 .3605-.2148.609-.6552.609h-.522Zm2.33-1.2074h1.1133v3.0025h.7599v-3.0025h1.1133v-.6338h-2.9865v.6338Z"/>
  </symbol>
  <symbol xmlns="http://www.w3.org/2000/svg" id="file_word" fill="none" viewBox="0 0 24 24">
    <path fill="#4A72FF" fill-rule="evenodd" d="M5.8984 2c-1.1045 0-2 .8954-2 2v16c0 1.1046.8955 2 2 2h12.2c1.1046 0 2-.8954 2-2V7.0002l-5-5h3.029A1.9922 1.9922 0 0 0 18.0984 2h-12.2Z" clip-rule="evenodd"/>
    <path fill="#fff" d="m10.4847 17 1.506-5.5209h.0278L13.5152 17h.8408l1.894-6.625h-.85l-1.4505 5.558h-.037l-1.4968-5.558h-.8222l-1.506 5.558h-.037L8.6 10.375h-.85L9.644 17h.8407Z"/>
    <path fill="url(#paint0_linear_71_9669)" d="M19.6325 6.5313h-4.0622l4.5313 4.5312V7l-.4691-.4688Z"/>
    <path fill="#B5C8FC" d="M16.1016 7h4l-5-5v4c0 .5523.4477 1 1 1Z"/>
    <defs>
      <linearGradient id="paint0_linear_71_9669" x1="16.5859" x2="21.1172" y1="5.5156" y2="10.0469" gradientUnits="userSpaceOnUse">
        <stop stop-opacity=".2"/>
        <stop offset="1" stop-opacity="0"/>
      </linearGradient>
    </defs>
  </symbol>
  <symbol xmlns="http://www.w3.org/2000/svg" id="file_text" fill="none" viewBox="0 0 24 24">
    <path fill="#576A95" fill-rule="evenodd" d="M5.8984 2c-1.1045 0-2 .8954-2 2v16c0 1.1046.8955 2 2 2h12.2c1.1046 0 2-.8954 2-2V7.0002l-5-5h3.029A1.9922 1.9922 0 0 0 18.0984 2h-12.2Z" clip-rule="evenodd"/>
    <path fill="url(#paint0_linear_469_197379)" d="M19.6325 6.5313h-4.0622l4.5313 4.5312V7l-.4691-.4688Z"/>
    <path fill="#BBC3D4" d="M16.1016 7h4l-5-5v4c0 .5523.4477 1 1 1Z"/>
    <path fill="#fff" d="M7.5 16h3v-1h-3v1Zm0-3.5v1h6v-1h-6Zm0-2.5v1h9v-1h-9Z"/>
    <defs>
      <linearGradient id="paint0_linear_469_197379" x1="16.5859" x2="21.1172" y1="5.5156" y2="10.0469" gradientUnits="userSpaceOnUse">
        <stop stop-opacity=".2"/>
        <stop offset="1" stop-opacity="0"/>
      </linearGradient>
    </defs>
  </symbol>
  <symbol xmlns="http://www.w3.org/2000/svg" id="file_xlsx" fill="none" viewBox="0 0 24 24">
    <path fill="#17A468" fill-rule="evenodd" d="M5.8984 2c-1.1045 0-2 .8954-2 2v16c0 1.1046.8955 2 2 2h12.2c1.1046 0 2-.8954 2-2V7.0002l-4.9999-5h3.0289A1.9922 1.9922 0 0 0 18.0984 2h-12.2Z" clip-rule="evenodd"/>
    <path fill="#fff" d="m9.755 17 2.2394-3.2142L14.2454 17h1.0671l-2.8004-3.897L15.1109 9.5h-1.0671l-2.0494 2.9201L9.955 9.5H8.8882l2.5779 3.603L8.6875 17H9.755Z"/>
    <path fill="url(#paint0_linear_71_9676)" d="M19.6325 6.5313h-4.0622l4.5313 4.5312V7l-.4691-.4688Z"/>
    <path fill="#EBFFEC" d="M16.1016 7h4l-5-5v4c0 .5523.4477 1 1 1Z"/>
    <defs>
      <linearGradient id="paint0_linear_71_9676" x1="16.5859" x2="21.1172" y1="5.5156" y2="10.0469" gradientUnits="userSpaceOnUse">
        <stop stop-opacity=".2"/>
        <stop offset="1" stop-opacity="0"/>
      </linearGradient>
    </defs>
  </symbol>
  <symbol xmlns="http://www.w3.org/2000/svg" id="file_zip" fill="none" viewBox="0 0 24 24">
    <path fill="#576A95" fill-rule="evenodd" d="M5.8984 2c-1.1045 0-2 .8954-2 2v16c0 1.1046.8955 2 2 2h12.2c1.1046 0 2-.8954 2-2V7.0002l-5-5h3.029A1.9922 1.9922 0 0 0 18.0984 2h-12.2Z" clip-rule="evenodd"/>
    <path fill="#fff" d="M13.375 14.4898v2.716a.6785.6785 0 0 1-.1994.4802.6806.6806 0 0 1-.481.1988h-1.3892a.6809.6809 0 0 1-.6286-.419.679.679 0 0 1-.0518-.2601v-2.7159h2.75Zm-.6804 1.556h-1.3892v1.3638h1.3892v-1.3638Zm.6577-4.272v1.3638h-1.3664v-1.3638h1.3664Zm-1.3494-9.574v1.375h1.3721v1.375h-1.3722v1.273h1.3722v1.375h-1.3721V8.956h1.3721v1.3581h-1.3721v1.358H10.625V10.314h1.3721V8.9558H10.625v-1.358h1.3721v-1.375H10.625v-1.375h1.3721v-1.273H10.625v-1.375h1.3779Z"/>
    <path fill="url(#paint0_linear_71_9672)" d="M19.6325 6.5313h-4.0622l4.5313 4.5312V7l-.4691-.4688Z"/>
    <path fill="#BBC3D4" d="M16.1016 7h4l-5-5v4c0 .5523.4477 1 1 1Z"/>
    <defs>
      <linearGradient id="paint0_linear_71_9672" x1="16.5859" x2="21.1172" y1="5.5156" y2="10.0469" gradientUnits="userSpaceOnUse">
        <stop stop-opacity=".2"/>
        <stop offset="1" stop-opacity="0"/>
      </linearGradient>
    </defs>
  </symbol>
  <symbol xmlns="http://www.w3.org/2000/svg" id="other_search" fill="none" viewBox="0 0 24 24">
    <circle cx="11" cy="11" r="8" stroke="#14233C" stroke-width="2"/>
    <path stroke="#14233C" stroke-linecap="round" stroke-linejoin="round" stroke-width="2" d="m22 22-5-5"/>
  </symbol>
  <symbol xmlns="http://www.w3.org/2000/svg" id="other_settings" fill="none" viewBox="0 0 24 24">
    <path fill="currentColor" fill-rule="evenodd" d="M9.538 1.8559a1 1 0 0 0-.8201-.0947 10.7396 10.7396 0 0 0-3.9427 2.2801 1 1 0 0 0-.327.7567l.0416 2.4739a8.8608 8.8608 0 0 0-.3398.5876l-2.1654 1.202a1 1 0 0 0-.492.663 10.7396 10.7396 0 0 0 .0033 4.5545 1 1 0 0 0 .4917.6616l2.1633 1.2009c.1054.2002.2185.3964.339.5881l-.0417 2.4762a1 1 0 0 0 .328.7577 10.74 10.74 0 0 0 3.946 2.2744c.274.0875.5723.0528.8189-.0951l2.1216-1.273c.2262.0088.4526.009.6788.0005l2.1237 1.2742a.9997.9997 0 0 0 .8201.0946 10.7396 10.7396 0 0 0 3.9427-2.28 1.0005 1.0005 0 0 0 .3271-.7567l-.0417-2.4739a8.887 8.887 0 0 0 .3399-.5876l2.1653-1.202a1.0001 1.0001 0 0 0 .4921-.663 10.7402 10.7402 0 0 0-.0033-4.5545 1.0002 1.0002 0 0 0-.4918-.6616L19.8523 7.859a8.8695 8.8695 0 0 0-.3389-.588l.0417-2.4763a1.0002 1.0002 0 0 0-.3282-.7577 10.7388 10.7388 0 0 0-3.9459-2.2744 1 1 0 0 0-.8188.0951l-2.1217 1.273a8.8684 8.8684 0 0 0-.6787-.0005L9.5381 1.856ZM6.4948 7.546l-.039-2.3145a8.7396 8.7396 0 0 1 2.4549-1.4198L10.896 5.003a1 1 0 0 0 .5888.1397 6.867 6.867 0 0 1 1.0304.0008.9998.9998 0 0 0 .5904-.1396l1.9849-1.191a8.7396 8.7396 0 0 1 2.457 1.416l-.039 2.3152a.9996.9996 0 0 0 .1734.5797c.1936.2843.3656.5827.5145.8928a.9995.9995 0 0 0 .4161.4414l2.0239 1.1236a8.7386 8.7386 0 0 1 .0021 2.8358l-2.0244 1.1238a.9994.9994 0 0 0-.4154.44 6.879 6.879 0 0 1-.5159.892.9993.9993 0 0 0-.1743.581l.039 2.3145a8.7366 8.7366 0 0 1-2.4548 1.4198l-1.9855-1.1913a.9992.9992 0 0 0-.5887-.1397 6.8697 6.8697 0 0 1-1.0305-.0009.9996.9996 0 0 0-.5903.1397l-1.985 1.191a8.74 8.74 0 0 1-2.457-1.416l.039-2.3152a.9999.9999 0 0 0-.1733-.5797 6.8718 6.8718 0 0 1-.5145-.8928.9998.9998 0 0 0-.4161-.4414l-2.024-1.1236a8.74 8.74 0 0 1-.0021-2.8358L5.389 9.4591a1 1 0 0 0 .4154-.44 6.866 6.866 0 0 1 .516-.892 1 1 0 0 0 .1742-.581ZM8.5 12c0-1.933 1.567-3.5 3.5-3.5s3.5 1.567 3.5 3.5-1.567 3.5-3.5 3.5-3.5-1.567-3.5-3.5ZM12 6.5c-3.0376 0-5.5 2.4624-5.5 5.5s2.4624 5.5 5.5 5.5 5.5-2.4624 5.5-5.5-2.4624-5.5-5.5-5.5Z" clip-rule="evenodd"/>
  </symbol>
  <symbol xmlns="http://www.w3.org/2000/svg" id="other_show" fill="none" viewBox="0 0 24 24">
    <path fill="currentColor" fill-rule="evenodd" d="M3.23 7.9178c1.8213-1.8215 4.687-3.6683 8.7696-3.6683s6.9483 1.8468 8.7696 3.6683a14.4364 14.4364 0 0 1 1.9907 2.4949c.2148.3412.3744.6281.482.8335a8.1198 8.1198 0 0 1 .1566.315l.0097.0214.0032.007.0016.0036c.0002.0005.0004.0009-.9134.407.9138.4062.9136.4067.9134.4071l-.0005.0011-.0011.0026-.0032.007-.0098.0213a4.4796 4.4796 0 0 1-.0333.0706 8.5163 8.5163 0 0 1-.1232.2444 12.2367 12.2367 0 0 1-.482.8334 14.4457 14.4457 0 0 1-1.9907 2.4943c-1.8214 1.8212-4.6871 3.6675-8.7696 3.6675-4.0825 0-6.9482-1.8463-8.7696-3.6675a14.4388 14.4388 0 0 1-1.9907-2.4943 12.2255 12.2255 0 0 1-.482-.8334 8.2546 8.2546 0 0 1-.1232-.2444 4.7488 4.7488 0 0 1-.0333-.0706L.591 12.418l-.0032-.007-.0011-.0026-.0005-.0011c-.0002-.0004-.0004-.0009.9134-.4071-.9138-.4061-.9136-.4065-.9134-.407l.0004-.001.0012-.0026.0032-.007.0097-.0214a8.115 8.115 0 0 1 .1566-.315 12.226 12.226 0 0 1 .482-.8335A14.439 14.439 0 0 1 3.23 7.9178Zm-1.7304 4.0824-.9134-.407a1.0043 1.0043 0 0 0 0 .8141l.9134-.4071Zm1.1231 0a10.8 10.8 0 0 0 .309.5218 12.439 12.439 0 0 0 1.7125 2.1457c1.5536 1.5535 3.938 3.0818 7.3554 3.0818 3.4175 0 5.8018-1.5283 7.3554-3.0818a12.4398 12.4398 0 0 0 1.7125-2.1457c.1265-.2011.2293-.3778.309-.5218a10.7577 10.7577 0 0 0-.3091-.522A12.4412 12.4412 0 0 0 19.355 9.332c-1.5537-1.554-3.938-3.0825-7.3554-3.0825S6.1979 7.7781 4.6442 9.332a12.4424 12.4424 0 0 0-1.7124 2.1462 10.7437 10.7437 0 0 0-.309.522Zm19.8769 0 .9134.4071a1.0044 1.0044 0 0 0 0-.8141l-.9134.407Zm-20.0871.4082c-.0002.0005-.0002.0003 0 0Zm0-.8161c0-.0003-.0001-.0005 0 0Z" clip-rule="evenodd"/>
    <path fill="currentColor" fill-rule="evenodd" d="M12 10c-1.1046 0-2 .8954-2 2s.8954 2 2 2 2-.8954 2-2-.8954-2-2-2Zm-4 2c0-2.2091 1.7909-4 4-4 2.2091 0 4 1.7909 4 4 0 2.2091-1.7909 4-4 4-2.2091 0-4-1.7909-4-4Z" clip-rule="evenodd"/>
  </symbol>
  <symbol xmlns="http://www.w3.org/2000/svg" id="other_stop" fill="none" viewBox="0 0 24 24">
    <rect width="16" height="16" x="4" y="4" fill="currentColor" rx="2"/>
  </symbol>
  <symbol xmlns="http://www.w3.org/2000/svg" id="other_top" fill="none" viewBox="0 0 24 24">
    <path fill="currentColor" fill-rule="evenodd" d="M3.3101 16.6917a1.0484 1.0484 0 0 1 0-1.4887l7.9412-7.8947c.4135-.411 1.0839-.411 1.4974 0l7.9412 7.8947a1.0483 1.0483 0 0 1 0 1.4887c-.4135.4111-1.0839.4111-1.4974 0L12 9.5413l-7.1925 7.1504c-.4135.4111-1.0839.4111-1.4974 0Z" clip-rule="evenodd"/>
  </symbol>
  <symbol xmlns="http://www.w3.org/2000/svg" id="other_triangle-down" fill="none" viewBox="0 0 24 24">
    <path fill="currentColor" fill-rule="evenodd" d="m7 10 5 5 5-5H7Z" clip-rule="evenodd"/>
  </symbol>
  <symbol xmlns="http://www.w3.org/2000/svg" id="other_triangle-left" fill="none" viewBox="0 0 24 24">
    <path fill="currentColor" fill-rule="evenodd" d="m14.5 16.5-5-5 5-5v10Z" clip-rule="evenodd"/>
  </symbol>
  <symbol xmlns="http://www.w3.org/2000/svg" id="other_triangle-right" fill="none" viewBox="0 0 24 24">
    <path fill="currentColor" fill-rule="evenodd" d="m9.5 16.5 5-5-5-5v10Z" clip-rule="evenodd"/>
  </symbol>
  <symbol xmlns="http://www.w3.org/2000/svg" id="other_triangle-up" fill="none" viewBox="0 0 24 24">
    <path fill="currentColor" fill-rule="evenodd" d="m7 14 5-5 5 5H7Z" clip-rule="evenodd"/>
  </symbol>
  <symbol xmlns="http://www.w3.org/2000/svg" id="other_uploading" fill="none" viewBox="0 0 24 24">
    <path stroke="#596476" stroke-linecap="round" stroke-linejoin="round" stroke-opacity=".16" stroke-width="2" d="M12 23c6.0751 0 11-4.9249 11-11S18.0751 1 12 1 1 5.9249 1 12s4.9249 11 11 11Z"/>
    <mask id="a" fill="#fff">
      <path d="M.1533 10.0882a11.9998 11.9998 0 0 0 13.0105 13.8552 11.9993 11.9993 0 0 0 10.448-8.9159A11.9998 11.9998 0 0 0 11.975 0l.0041 1.964a10.0358 10.0358 0 0 1 9.7322 12.568 10.0357 10.0357 0 0 1-14.6297 6.2162 10.0366 10.0366 0 0 1-4.9894-10.3471l-1.939-.3129Z"/>
    </mask>
    <path fill="#2466C5" d="M.1533 10.0882a11.9998 11.9998 0 0 0 13.0105 13.8552 11.9993 11.9993 0 0 0 10.448-8.9159A11.9998 11.9998 0 0 0 11.975 0l.0041 1.964a10.0358 10.0358 0 0 1 9.7322 12.568 10.0357 10.0357 0 0 1-14.6297 6.2162 10.0366 10.0366 0 0 1-4.9894-10.3471l-1.939-.3129Z" mask="url(#a)"/>
  </symbol>
  <symbol xmlns="http://www.w3.org/2000/svg" id="other_yes" fill="none" viewBox="0 0 24 24">
    <path fill="currentColor" fill-rule="evenodd" d="M20.9571 6.0434c.3905.3905.3905 1.0237 0 1.4142l-10.5 10.4995c-.3905.3905-1.0236.3906-1.4142.0001l-5.25-5.2496c-.3905-.3905-.3905-1.0236 0-1.4142.3905-.3905 1.0236-.3906 1.4142 0L9.75 15.8359l9.7929-9.7925c.3905-.3906 1.0237-.3905 1.4142 0Z" clip-rule="evenodd"/>
  </symbol>
  <symbol xmlns="http://www.w3.org/2000/svg" id="other_yes-fill" fill="none" viewBox="0 0 24 24">
    <circle cx="12" cy="12" r="10" fill="#fff"/>
    <path fill="#21A453" d="M12 22C6.477 22 2 17.523 2 12S6.477 2 12 2s10 4.477 10 10-4.477 10-10 10Zm-.997-6 7.07-7.071-1.414-1.414-5.656 5.657-2.829-2.829-1.414 1.414L11.003 16Z"/>
  </symbol>
  <symbol xmlns="http://www.w3.org/2000/svg" id="other_yes-outline" fill="none" viewBox="0 0 24 24">
    <path stroke="#9EE2B8" stroke-linecap="round" stroke-linejoin="round" stroke-width="2" d="M12 23c6.0751 0 11-4.9249 11-11S18.0751 1 12 1 1 5.9249 1 12s4.9249 11 11 11Z"/>
    <path stroke="#21A453" stroke-linecap="round" stroke-linejoin="round" stroke-width="2" d="m17.25 9.6816-6.1667 5.8864L8 12.6248"/>
  </symbol>
  <symbol xmlns="http://www.w3.org/2000/svg" id="other_add" fill="none" viewBox="0 0 24 24">
    <path fill="currentColor" fill-rule="evenodd" d="M13 5.1429C13 4.5117 12.5523 4 12 4s-1 .5117-1 1.1429V11H5.1429C4.5117 11 4 11.4477 4 12s.5117 1 1.1429 1H11v5.8571C11 19.4883 11.4477 20 12 20s1-.5117 1-1.1429V13h5.8571C19.4883 13 20 12.5523 20 12s-.5117-1-1.1429-1H13V5.1429Z" clip-rule="evenodd"/>
  </symbol>
  <symbol xmlns="http://www.w3.org/2000/svg" id="other_add-fill" fill="none" viewBox="0 0 24 24">
    <path fill="currentColor" d="M0 12C0 5.3726 5.3726 0 12 0s12 5.3726 12 12-5.3726 12-12 12S0 18.6274 0 12Z"/>
    <path fill="#fff" fill-rule="evenodd" d="M12.666 7.4284c0-.4208-.2985-.7619-.6667-.7619-.3681 0-.6666.3411-.6666.762v3.9047H7.4279c-.4208 0-.7619.2984-.7619.6666 0 .3682.3411.6667.762.6667h3.9047v3.9048c0 .4208.2985.7619.6666.7619.3682 0 .6667-.3411.6667-.7619v-3.9048h3.9048c.4208 0 .7619-.2985.7619-.6667 0-.3682-.3411-.6666-.7619-.6666H12.666V7.4284Z" clip-rule="evenodd"/>
  </symbol>
  <symbol xmlns="http://www.w3.org/2000/svg" id="other_back" fill="none" viewBox="0 0 24 24">
    <path fill="currentColor" fill-rule="evenodd" d="M16.6609 3.3101c.4521.4135.4521 1.084 0 1.4974L8.7954 12l7.8655 7.1925c.4521.4135.4521 1.0839 0 1.4974-.4522.4135-1.1854.4135-1.6375 0l-8.6843-7.9412c-.4522-.4135-.4522-1.0839 0-1.4974l8.6843-7.9412c.4521-.4135 1.1853-.4135 1.6375 0Z" clip-rule="evenodd"/>
  </symbol>
  <symbol xmlns="http://www.w3.org/2000/svg" id="other_arrow" fill="none" viewBox="0 0 24 24">
    <path fill="currentColor" d="M5.207 13.0002h11.17l-4.88 4.88c-.39.39-.39 1.03 0 1.42.39.39 1.02.39 1.41 0l6.59-6.59c.39-.39.39-1.02 0-1.41l-6.58-6.6a.9959.9959 0 0 0-1.41 0c-.39.39-.39 1.02 0 1.41l4.87 4.89H5.207c-.55 0-1 .45-1 1s.45 1 1 1Z"/>
  </symbol>
  <symbol xmlns="http://www.w3.org/2000/svg" id="other_closed" fill="none" viewBox="0 0 24 24">
    <path fill="currentColor" fill-rule="evenodd" d="M3.7779 9.2036c-.347-.4296-.9767-.4965-1.4063-.1494-.4296.347-.4965.9767-.1494 1.4063.4405.5453.9808 1.1326 1.6268 1.7027l-1.7266 2.9906c-.2761.4783-.1122 1.0898.366 1.366.4783.2761 1.09.1123 1.366-.366l1.6038-2.7778c.8517.5416 1.8263 1.0151 2.9311 1.3506l-.5068 2.874c-.0959.5439.2673 1.0626.8112 1.1585.5439.0959 1.0626-.2673 1.1585-.8112l.4941-2.8025c.5273.068 1.0784.1046 1.6538.1046.5707 0 1.1174-.036 1.6407-.1029l.4941 2.8021c.0959.5439.6146.9071 1.1585.8112.5439-.0959.907-.6146.8111-1.1585l-.5063-2.8714c1.1073-.335 2.0842-.8086 2.9376-1.3506l1.5927 2.7587c.2762.4783.8878.6422 1.3661.366.4783-.2761.6421-.8877.366-1.366l-1.715-2.9705c.6484-.5716 1.1906-1.1607 1.6324-1.7076.3471-.4296.2802-1.0592-.1494-1.4063-.4296-.347-1.0593-.2801-1.4063.1495-.5021.6214-1.1409 1.2918-1.9296 1.9048a1.006 1.006 0 0 0-.092.0708c-1.5054 1.1443-3.543 2.0707-6.2006 2.0707-4.125 0-6.7562-2.2318-8.2222-4.0464Z" clip-rule="evenodd"/>
  </symbol>
  <symbol xmlns="http://www.w3.org/2000/svg" id="other_bottom" fill="none" viewBox="0 0 24 24">
    <path fill="currentColor" fill-rule="evenodd" d="M19.9399 7.3083a1.0483 1.0483 0 0 1 0 1.4887l-7.9412 7.8947c-.4135.4111-1.0839.4111-1.4974 0L2.5601 8.7969a1.0483 1.0483 0 0 1 0-1.4886c.4135-.411 1.084-.411 1.4974 0l7.1925 7.1504 7.1925-7.1504c.4135-.411 1.0839-.411 1.4974 0Z" clip-rule="evenodd"/>
  </symbol>
  <symbol xmlns="http://www.w3.org/2000/svg" id="other_company" fill="none" viewBox="0 0 24 24">
    <path fill="currentColor" fill-rule="evenodd" d="M3.7495 1.9985a1.75 1.75 0 0 0-1.75 1.75v15.5H1.5c-.5523 0-1 .4478-1 1 0 .5523.4477 1 1 1h21c.5523 0 1-.4477 1-1 0-.5522-.4477-1-1-1h-.5005v-9.5a1.75 1.75 0 0 0-1.75-1.75h-5.75v-4.25a1.75 1.75 0 0 0-1.75-1.75h-9Zm16.25 8v9.25h-5.5v-9.25h5.5Zm-7.5-6v15.25h-8.5v-15.25h8.5Zm-6.5 1.75c-.5523 0-1 .4478-1 1 0 .5523.4477 1 1 1h3c.5523 0 1-.4477 1-1 0-.5522-.4477-1-1-1h-3Zm.5 7c0-.5523.4477-1 1-1h3c.5523 0 1 .4477 1 1s-.4477 1-1 1h-3c-.5523 0-1-.4477-1-1Zm-.5 2.75c-.5523 0-1 .4477-1 1s.4477 1 1 1h3c.5523 0 1-.4477 1-1s-.4477-1-1-1h-3Zm9.5 1c0-.5523.4477-1 1-1h1.5c.5523 0 1 .4477 1 1s-.4477 1-1 1h-1.5c-.5523 0-1-.4477-1-1Zm1-4.75c-.5523 0-1 .4477-1 1s.4477 1 1 1h1.5c.5523 0 1-.4477 1-1s-.4477-1-1-1h-1.5Z" clip-rule="evenodd"/>
  </symbol>
  <symbol xmlns="http://www.w3.org/2000/svg" id="other_delete" fill="none" viewBox="0 0 24 24">
    <rect width="24" height="24" fill="#EBEBEB" rx="12"/>
    <path fill="#7D7D81" d="m11.999 10.9635 3.63-3.63 1.0369 1.037-3.63 3.6299 3.63 3.63-1.0369 1.037-3.63-3.63-3.63 3.63-1.037-1.037 3.63-3.63-3.63-3.63 1.037-1.0369 3.63 3.63Z"/>
  </symbol>
  <symbol xmlns="http://www.w3.org/2000/svg" id="other_error" fill="none" viewBox="0 0 24 24">
    <path stroke="#ECACA5" stroke-linecap="round" stroke-linejoin="round" stroke-width="2" d="M12 23c6.0751 0 11-4.9249 11-11S18.0751 1 12 1 1 5.9249 1 12s4.9249 11 11 11Z"/>
    <path stroke="#D44333" stroke-linecap="round" stroke-linejoin="round" stroke-width="2.1975" d="M12 7v5.3565"/>
    <path fill="#D44333" d="M11.9997 18.1249c.9103 0 1.6482-.7379 1.6482-1.6481 0-.9103-.7379-1.6482-1.6482-1.6482-.9102 0-1.6481.7379-1.6481 1.6482 0 .9102.7379 1.6481 1.6481 1.6481Z"/>
  </symbol>
  <symbol xmlns="http://www.w3.org/2000/svg" id="other_error-fill" fill="none" viewBox="0 0 24 24">
    <path fill="#596476" fill-opacity=".16" d="m12.9585 2.054 10.5584 18.2838a1.1074 1.1074 0 0 1-.4057 1.5137A1.1081 1.1081 0 0 1 22.557 22H1.4404a1.1081 1.1081 0 0 1-.9599-1.6622L11.0388 2.054a1.1083 1.1083 0 0 1 1.9197 0Zm-2.0682 14.4054v2.2163h2.2168v-2.2163h-2.2168Zm0-7.7567v5.5405h2.2168V8.7027h-2.2168Z"/>
  </symbol>
  <symbol xmlns="http://www.w3.org/2000/svg" id="other_favorite" fill="none" viewBox="0 0 24 24">
    <path fill="currentColor" fill-rule="evenodd" d="M10.9902 1.565a1.7798 1.7798 0 0 1 2.6718.8248l2.0159 5.0767 5.3991.3504c1.6647.108 2.2364 2.1898 1.0212 3.2013l-4.1494 3.4536 1.3388 5.2666c.3829 1.506-1.2454 2.892-2.6798 1.9832l-4.6066-2.9186-4.2724 2.7068c-1.5553.9853-3.3337-.5145-2.915-2.1616l1.2397-4.8764-4.1494-3.4536C.689 10.0067 1.2606 7.9249 2.9253 7.8169l5.399-.3504 2.016-5.0767a1.78 1.78 0 0 1 .6499-.8248Zm.8893 17.1609.5351-.8446-.5369.8435.0018.0011Zm1.071-1.6891.0012.0008 4.2742 2.7079-1.2421-4.8858-.0004-.0018a1.8202 1.8202 0 0 1 .5905-1.8438l.0047-.0041 3.8797-3.229-5.0546-.328a1.7891 1.7891 0 0 1-1.5388-1.133l-1.8637-4.6935L10.1374 8.32a1.7893 1.7893 0 0 1-1.5388 1.133l-.0065.0005-5.048.3276L7.4236 13.01l.0047.004a1.8208 1.8208 0 0 1 .5905 1.8441l-.0004.0015-1.242 4.8858 4.2741-2.7079c.0003-.0002-.0002.0002 0 0a1.7704 1.7704 0 0 1 1.8999-.0008Z" clip-rule="evenodd"/>
  </symbol>
  <symbol xmlns="http://www.w3.org/2000/svg" id="other_filters" fill="none" viewBox="0 0 24 24">
    <path fill="currentColor" fill-rule="evenodd" d="M10 7a.875.875 0 1 0 0 1.75A.875.875 0 0 0 10 7ZM3.9796 9h3.3738c.4379 1.0287 1.458 1.75 2.6466 1.75 1.1886 0 2.2087-.7213 2.6466-1.75h7.4122C20.5786 9 21 8.5521 21 8c0-.5523-.4214-1-.9412-1h-7.3194C12.3693 5.84 11.2827 5 10 5c-1.2827 0-2.3693.84-2.7394 2h-3.281C3.4386 7 3 7.4477 3 8c0 .5522.4386 1 .9796 1Zm10.8954 6a.875.875 0 1 0 .0001 1.7501A.875.875 0 0 0 14.875 15Zm-10.9678.0001L12.1356 15c.3702-1.16 1.4567-2 2.7394-2 1.2827 0 2.3692.84 2.7394 2l2.3046.0001c.597 0 1.081.4477 1.081 1 0 .5522-.4841.9999-1.0811.9999l-2.3973-.0001c-.4378 1.0288-1.458 1.7501-2.6466 1.7501-1.1886 0-2.2088-.7213-2.6466-1.7501L3.9072 17C3.4062 17 3 16.5523 3 16.0001c0-.5523.4062-1 .9072-1Z" clip-rule="evenodd"/>
  </symbol>
  <symbol xmlns="http://www.w3.org/2000/svg" id="other_lang" fill="none" viewBox="0 0 24 24">
    <path fill="currentColor" fill-rule="evenodd" d="M9.3755 4.1762c-2.0563.6895-3.7512 2.167-4.726 4.0738h3.1962c.197-1.0159.4726-1.9417.8132-2.737.2095-.489.4484-.9402.7166-1.3368ZM7.6203 9.75H4.0605A8.2558 8.2558 0 0 0 3.75 12c0 .78.1082 1.5348.3106 2.25h3.5598A20.7862 20.7862 0 0 1 7.5 11.9999c0-.7732.0415-1.527.1203-2.2499Zm1.5097 4.5c-.0844-.7124-.13-1.4668-.13-2.2501 0-.7832.0456-1.5376.13-2.2499h5.74c.0844.7123.13 1.4667.13 2.2499 0 .7833-.0456 1.5377-.13 2.2501H9.13Zm-1.2843 1.5H4.6496c.9747 1.9068 2.6697 3.3844 4.726 4.0738-.2683-.3966-.5072-.8479-.7167-1.337-.3405-.7952-.6162-1.721-.8132-2.7368Zm6.7786 4.0738c2.0564-.6895 3.7514-2.167 4.7261-4.0738h-3.1961c-.1969 1.0158-.4727 1.9416-.8132 2.7368-.2095.4891-.4484.9404-.7168 1.337Zm-.0008-4.0738c-.1723.8057-.3973 1.5298-.6613 2.1462-.3155.7368-.6719 1.285-1.0295 1.6382-.3544.35-.6687.4718-.9327.4718s-.5783-.1218-.9327-.4718c-.3576-.3532-.714-.9014-1.0295-1.6382-.264-.6164-.489-1.3405-.6613-2.1462h5.247Zm1.7561-1.5h3.5599A8.2597 8.2597 0 0 0 20.25 12c0-.78-.1083-1.5348-.3105-2.25h-3.5598c.0788.7229.1203 1.4767.1203 2.2499 0 .7732-.0415 1.5272-.1204 2.2501Zm-.2253-6h3.1961c-.9747-1.9068-2.6696-3.3843-4.7259-4.0738.2683.3966.5071.8478.7166 1.3368.3406.7953.6163 1.7211.8132 2.737Zm-1.5307 0H9.3764c.1724-.8057.3974-1.53.6614-2.1464.3155-.7368.6719-1.285 1.0295-1.6382.3544-.35.6687-.4717.9327-.4717s.5783.1217.9327.4717c.3576.3532.714.9014 1.0295 1.6382.264.6164.489 1.3407.6614 2.1464ZM12 2.25c-5.3848 0-9.75 4.3652-9.75 9.75s4.3652 9.75 9.75 9.75 9.75-4.3652 9.75-9.75S17.3848 2.25 12 2.25Z" clip-rule="evenodd"/>
  </symbol>
  <symbol xmlns="http://www.w3.org/2000/svg" id="other_left" fill="none" viewBox="0 0 24 24">
    <path fill="currentColor" fill-rule="evenodd" d="M10.8058 5.2412c-.259-.3216-.6789-.3216-.9379 0l-5.6737 6.1765c-.259.3216-.259.843 0 1.1646l5.6737 6.1765c.259.3216.6789.3216.9379 0 .2589-.3216.2589-.843 0-1.1647L5.601 12l5.2048-5.5941c.2589-.3217.2589-.843 0-1.1647Z" clip-rule="evenodd"/>
  </symbol>
  <symbol xmlns="http://www.w3.org/2000/svg" id="other_mail" fill="none" viewBox="0 0 24 24">
    <path fill="currentColor" fill-rule="evenodd" d="M2 5.25c0-.5523.4477-1 1-1h18c.5523 0 1 .4477 1 1V18a1.75 1.75 0 0 1-1.75 1.75H3.75A1.75 1.75 0 0 1 2 18V5.25Zm2 1v11.5h16V6.25H4Z" clip-rule="evenodd"/>
    <path fill="currentColor" fill-rule="evenodd" d="M2.2628 4.5743c.3732-.4071 1.0058-.4346 1.413-.0614L12 12.1433l8.3243-7.6305c.4071-.3732 1.0397-.3457 1.4129.0614s.3456 1.0397-.0615 1.4129l-9 8.25a1 1 0 0 1-1.3514 0l-9-8.25c-.4071-.3732-.4346-1.0058-.0615-1.413Z" clip-rule="evenodd"/>
  </symbol>
  <symbol xmlns="http://www.w3.org/2000/svg" id="other_menu" fill="none" viewBox="0 0 24 24">
    <path fill="currentColor" fill-rule="evenodd" d="M2.75 12c0-.5523.4477-1 1-1h16.5c.5523 0 1 .4477 1 1s-.4477 1-1 1H3.75c-.5523 0-1-.4477-1-1Zm0-6c0-.5523.4477-1 1-1h16.5c.5523 0 1 .4477 1 1s-.4477 1-1 1H3.75c-.5523 0-1-.4477-1-1Zm0 12c0-.5523.4477-1 1-1h16.5c.5523 0 1 .4477 1 1s-.4477 1-1 1H3.75c-.5523 0-1-.4477-1-1Z" clip-rule="evenodd"/>
  </symbol>
  <symbol xmlns="http://www.w3.org/2000/svg" id="other_message" fill="none" viewBox="0 0 24 24">
    <path stroke="currentColor" stroke-linecap="round" stroke-linejoin="round" stroke-width="2" d="m7.2562 18.9281-3.028 2.5313a.7503.7503 0 0 1-1.109-.1722A.75.75 0 0 1 3 20.8875V6a.75.75 0 0 1 .75-.75h16.5A.7499.7499 0 0 1 21 6v12a.7497.7497 0 0 1-.75.75H7.7344a.7313.7313 0 0 0-.4782.1781v0Z"/>
    <path fill="currentColor" stroke="currentColor" stroke-width="2" d="M12.125 12a.125.125 0 1 1-.25 0 .125.125 0 0 1 .25 0Zm-4.5 0a.125.125 0 1 1-.25 0 .125.125 0 0 1 .25 0Zm9 0a.125.125 0 1 1-.25 0 .125.125 0 0 1 .25 0Z"/>
  </symbol>
  <symbol xmlns="http://www.w3.org/2000/svg" id="other_next" fill="none" viewBox="0 0 24 24">
    <path fill="currentColor" fill-rule="evenodd" d="M7.3391 3.3101c-.4522.4135-.4522 1.084 0 1.4974L15.2046 12l-7.8655 7.1925c-.4522.4135-.4522 1.0839 0 1.4974s1.1854.4135 1.6375 0l8.6843-7.9412c.4521-.4135.4521-1.0839 0-1.4974L8.9766 3.3101c-.4521-.4135-1.1853-.4135-1.6375 0Z" clip-rule="evenodd"/>
  </symbol>
  <symbol xmlns="http://www.w3.org/2000/svg" id="other_notify" fill="none" viewBox="0 0 24 24">
    <path fill="currentColor" fill-rule="evenodd" d="M9.8435 4.3127a5.8716 5.8716 0 0 1 2.2009-.4134c3.1302.023 5.6707 2.5557 5.6707 5.65v.6381c0 3.1007.6199 5.0727 1.2749 6.2882H5.01c.6554-1.2156 1.2756-3.1876 1.2756-6.2882v-.7207a5.4215 5.4215 0 0 1 .4375-2.1396 5.5528 5.5528 0 0 1 1.2506-1.8107 5.7396 5.7396 0 0 1 1.8698-1.2037Zm2.2132-2.2252a7.8087 7.8087 0 0 0-2.9275.5496c-.9287.3688-1.7727.9122-2.4835 1.5986-.7107.6864-1.2741 1.5023-1.658 2.4005a7.1786 7.1786 0 0 0-.5794 2.8324v.7188c0 3.0923-.6659 4.7979-1.1799 5.6566A1.5848 1.5848 0 0 0 3 16.6532a1.5841 1.5841 0 0 0 .2202.8133c.146.248.3571.4548.6126.5992.2556.1443.5463.221.8428.2217H8.407a3.6 3.6 0 0 0 7.186 0h3.7314a1.7226 1.7226 0 0 0 .8427-.2217 1.6527 1.6527 0 0 0 .6126-.599A1.585 1.585 0 0 0 21 16.6535a1.5857 1.5857 0 0 0-.228-.8089c-.5138-.8585-1.1796-2.5643-1.1796-5.6572v-.6382c0-4.0458-3.3279-7.4313-7.5346-7.4617h-.0011Zm1.7292 16.1999h-3.5718A1.8002 1.8002 0 0 0 12 19.8624a1.8 1.8 0 0 0 1.7859-1.575Z" clip-rule="evenodd"/>
    <circle cx="19.5" cy="5.5" r="4" fill="#D44333" stroke="#fff"/>
  </symbol>
  <symbol xmlns="http://www.w3.org/2000/svg" id="other_phone" fill="none" viewBox="0 0 24 24">
    <path fill="currentColor" fill-rule="evenodd" d="M7.6153 4.0575 9.3696 8.151l-1.485 2.2692a1.7434 1.7434 0 0 0-.1166 1.7137l.0034.0069a8.9078 8.9078 0 0 0 4.1242 4.1055l.0071.0034a1.7426 1.7426 0 0 0 1.7188-.1285l.0027-.0018 2.2298-1.4869 4.0884 1.7522A3.5007 3.5007 0 0 1 16.5 19.25m-6.8643-7.8533a6.9073 6.9073 0 0 0 2.9947 2.9815l2.2267-1.4848a1.7504 1.7504 0 0 1 1.6603-.1525l4.388 1.8806.0015.0006a1.7475 1.7475 0 0 1 1.0501 1.8177l-.0008.0067a5.5007 5.5007 0 0 1-5.4561 4.8035A13.7502 13.7502 0 0 1 2.75 7.5a5.501 5.501 0 0 1 4.8035-5.4562l.0066-.0009a1.7475 1.7475 0 0 1 1.8176 1.0499l.0008.0017 1.8822 4.3919a1.7505 1.7505 0 0 1-.1442 1.6477l-1.4808 2.2626ZM7.6153 4.0576A3.5008 3.5008 0 0 0 4.75 7.5 11.75 11.75 0 0 0 16.5 19.25" clip-rule="evenodd"/>
  </symbol>
  <symbol xmlns="http://www.w3.org/2000/svg" id="other_phone-fill" fill="none" viewBox="0 0 24 24">
    <path fill="currentColor" d="M8.6697 11.7014a7.9076 7.9076 0 0 0 3.6612 3.6446.743.743 0 0 0 .7339-.0555l2.3471-1.5651a.7503.7503 0 0 1 .7116-.0654l4.3909 1.8819a.7478.7478 0 0 1 .4499.7778A4.5009 4.5009 0 0 1 16.5 20.25 12.75 12.75 0 0 1 3.75 7.5a4.5008 4.5008 0 0 1 3.9303-4.4643.7475.7475 0 0 1 .7778.4498l1.8835 4.3948a.7505.7505 0 0 1-.0618.7062l-1.5597 2.3831a.7434.7434 0 0 0-.0504.7318Z"/>
  </symbol>
  <symbol xmlns="http://www.w3.org/2000/svg" id="other_play" fill="none" viewBox="0 0 24 24">
    <path fill="currentColor" d="M19.7697 12.4399 8.8039 19.9115a.5082.5082 0 0 1-.5308.0259.5222.5222 0 0 1-.1995-.1943A.538.538 0 0 1 8 19.4716V4.5284a.5376.5376 0 0 1 .0736-.2715.5223.5223 0 0 1 .1995-.1943.5081.5081 0 0 1 .5308.026L19.7697 11.56a.5252.5252 0 0 1 .1691.1905A.5375.5375 0 0 1 20 12c0 .087-.021.1727-.0612.2494a.5252.5252 0 0 1-.1691.1905Z"/>
  </symbol>
  <symbol xmlns="http://www.w3.org/2000/svg" id="other_right" fill="none" viewBox="0 0 24 24">
    <path fill="currentColor" fill-rule="evenodd" d="M13.1942 5.2412c.259-.3216.6789-.3216.9379 0l5.6737 6.1765c.2589.3216.2589.843 0 1.1646l-5.6737 6.1765c-.259.3216-.6789.3216-.9379 0-.2589-.3216-.2589-.843 0-1.1647L18.399 12l-5.2048-5.5941c-.2589-.3217-.2589-.843 0-1.1647Z" clip-rule="evenodd"/>
  </symbol>
</svg>
